<svg width="431" height="260" fill="none" xmlns="http://www.w3.org/2000/svg"><path fill-rule="evenodd" clip-rule="evenodd" d="M395.932 61.618c.003-.266-.136-.642-.402-.636-1.042.027-2.182.123-3.199.32-1.352.26-3.272-.012-4.585.405-.692.22-1.411.514-2.052.401-1.151-.202-1.124-.471-1.843.45-.174.224-.521.127-.782.016-.263-.112-.518-.242-.775-.366-.686-.334-1.43.312-2.187.401-.377.044-.793-.1-1.121-.41-.204-.194-.178-.639-.168-.92.006-.182.194-.185.363-.115.413.171.917.17 1.422.056.887-.2.499-1.074-.394-.906-.709.133-1.389.322-1.943.677-.166.106-.079.235.109.293.13.04.052.207-.062.28-.221.142-.294.4-.427.61-.187.293-.598.1-.561-.246.014-.135.043-.244.037-.314-.028-.312-.502.164-.591.465a4.7 4.7 0 01-.053.17c-.143.434-.642.49-1.092.41a7.135 7.135 0 00-1.417-.103c-1.948.053-4.522.358-6.394.9-.245.07-.488.147-.727.22-2.125.641-5.528.237-7.723-.095a4.742 4.742 0 01-.629-.14c-.457-.135-.861-.04-.84.437.017.383-.421.311-.79.205-1.675-.484-3.188 1.4-4.865 2.024-.669.25-1.119-.46-.422-.61.828-.18-.109-.472-.901-.173-2.113.797-4.371.044-6.275.244-.481.051-.877-.207-.52-.534.333-.306-.206-.689-.654-.627-.573.078-1.267.151-1.808.413-.253.123-.587.13-.754-.097-.194-.264-.637-.492-.939-.365-.912.384-1.945.151-3.066-.047-.84-.148-.362.727-1.139 1.08-.557.164-1.163-.664-1.729-.794l-.015-.003c-.1-.019-.198.025-.286.076-1.306.749-3.03.876-4.382 1.636-.315.176-1.591.682-1.907.855-.03.016-.024-.009-.034-.04-.044-.144-.118-.584-.149-.59-2.631-.35-6.315 1.98-9 2.95-.376.137-3.843 1.903-4.176 1.683a.371.371 0 01-.117-.13 1.46 1.46 0 01-.06-.155c-.194-.616-.347-.94-.952-.714-4.777 1.786-10.227 2.77-15.797 4.51-.107.034-.096.125-.023.21.04.047.006.134-.055.143-2.744.38-4.201-.027-6.185.998a3.17 3.17 0 01-1.056.33c-1.801.224-4.257 1.046-5.832 1.51-.359.105-.132.474-.142.848-.004.152-.214.166-.354.106-2.175-.944-3.874-.773-6.014-.166-1.157.329-2.65-.45-3.795-.083-.458.147-.834.493-.899.982-.04.295.33.508.602.388.468-.206 1.425-.983 1.683-.541.026.045.05.097.069.16.085.265-.096.516-.361.599-.648.202-5.79.841-6.468.834-.921-.01-1.809-.075-2.819.29-.567.206-1.217-.033-1.72-.367-.63-.418-1.41-.283-2.133-.056-.777.243-3.627 1.032-4.388.742a.957.957 0 01-.037-.014c-.469-.188-.456-.807-.02-1.06.812-.471 1.56-.658 2.204-.926.298-.123.091-.442-.198-.585-.21-.103-.514-.094-.655.092-.421.554-.929.773-1.493.733-.426-.03-1.167.484-1.559.318-.334-.14-.612.2-.25.213.134.005.27.008.346.188.093.22-.053.464-.26.584-1.1.634-2.539.71-3.927.389-.224-.053-.252-.383-.116-.57.124-.168-.1-.33-.302-.273-.806.228-1.766-.123-2.117.358-.309.424.247.797.73.593.053-.022.105-.043.156-.06.416-.142.378.393-.015.59-.662.328-1.289.443-1.893.408-.401-.024-.154-.8-.545-.892a.489.489 0 00-.093-.013c-.09.001-.174.008-.252.019-1.199.17-2.179.697-3.364.444-1.267-.271-2.282.036-3.477.218-.807.122-1.542.905-2.278 1.26a5.7 5.7 0 01-.769.283c-.434.136-.921-.156-1.22-.5a.475.475 0 01-.125-.236.487.487 0 01-.004-.193c.155-.756-.153-.95-.89-.721-.275.085-.57.166-.877.222-1.28.234-3.033.724-4.313.96-.19.035-.379.046-.562.026-.868-.098-.563-1.247.229-1.614.622-.288 1.195-.494 1.722-.5.307-.004.739-.233 1.011-.374.688-.357 2.149-.485 2.974-.881.146-.07 1.421-.362 1.575-.412a.143.143 0 00.086-.084c.021-.06.045-.12.072-.182.235-.532 1.819-2.386 2.349-2.148.07.032.142.1.216.216.126.198.367.422.525.25.106-.117.109-.32.11-.525.002-.406.396-.548.743-.338.14.085.277.178.416.265.533.332 1.156.064 1.665-.303 3.519-2.543 8.155-2.403 12.184-3.378.624-.15.45-.633-.157-.842-.373-.128-.255-.393.132-.317a.705.705 0 00.329.005c.33-.101.006-.546-.338-.514l-.076.007c-.514.05-.295-.57.215-.484.772.13 1.855-.674 1.176-1.065-.393-.272-.717.114-1.197.07-.292-.026-.545.093-.398.348.089.155-.038.355-.184.251-.154-.109-.282-.287-.428-.42-.21-.192-.486-.02-.641.219-2.13 3.304-6.796 2.407-9.918 4.244-.424.249-.914-.061-1.38-.216a.237.237 0 00-.083-.013c-.528.017-.992.881-1.403.549-.435-.353-1.105-.087-1.58.211-.915.575-2.494.29-3.375.953-.296.223-.737.327-1.091.22-1.52-.46-3.296 1.255-4.662 1.863-.075.033-.306.615-.289.695.007.03-.003.087-.031.1-.569.281-.925.632-1.416.427-.263-.109-.386-.66-.109-.596.488.112.473-.027-.001-.187-1.686-.573-3.326.845-5.199 1.074-.391.047-.753.288-1.001.595-.35.433-1.095.361-1.651.391-.387.02-.817.16-1.246.298-.365.117-.589.537-.645.916-.1.67-.363 1.729.295 1.886.729.174 1.453.004 2.118-.275.521-.218 1.443.288 1.691.796.194.397-.451.422-.88.315-1.413-.351-3.735 1.17-4.6 1.037.266.007.549-.047.772.066.378.191.071.742-.282.976-.487.324-1.038.7-1.532.502-.105-.042.066-.218.165-.27.14-.073.057-1.423-.072-1.514a3.128 3.128 0 00-.909-.453c-.131-.039-.256.075-.212.205.186.544.704.12.809.912.02.155-.104.307-.173.447-.079.16-.246.13-.407.05a1.215 1.215 0 00-.464-.103c-.761-.046-2.673-.114-3.422.03-.666.13-1.349.12-1.949-.096-.819-.294-1.786-.57-2.523-.105-1.743 1.097-3.307 2.057-5.391 2.265a.669.669 0 01-.713-.494 3.264 3.264 0 00-.11-.34c-.094-.234-.292-.098-.381.139-.042.11-.097.208-.159.301-.173.26-.878.57-1.19.566-.157-.002-.044-.255-.013-.41a.865.865 0 00.016-.139c.01-.246-.46-.52-.704-.548-.219-.025-.429.179-.266.327.192.174.472.1.608.432.118.286-.169.558-.357.803-.041.053-.076.11-.111.168-.194.329-.594.272-.975.289-.799.034-1.521 1.267-2.767 1.1-.309-.04-.508-.267-.476-.578.048-.465-.492-.682-.625-.234-.133.447-.154.987-.477 1.272-.062.055-.153-.019-.149-.1.008-.14-.07-.13-.157-.02-.737.933-2.294.486-3.313.228-.097-.025-.35.352-.428.414a.082.082 0 01-.039.016c-3.534.406-6.286 1.811-9.406 2.707-.303.087-.385-.137-.546-.409-.064-.108-.22-.05-.329.012-1.669.956-7.583 5.865-7.584 2.48 0-.19-.127-.305-.314-.332-.162-.023-.082-.237.073-.29a.738.738 0 00.208-.102c.171-.134-.026-.38-.242-.356-.588.062-1.246.726-1.873 1.188-.276.204-.647.127-.862-.14-.298-.372-.77-.187-1.1.157-.933.97-2.296-.43-3.434-.173-.327.073-.724-.05-.463-.26.298-.24-.1-.343-.344-.048-1.681 2.03-5.001 1.618-7.6 2.71-.451.19-.814.043-.336-.064.446-.1-.194-.478-.603-.273-1.837.92-4.748 1.269-7.056 2.154-.525.202-2.188.332-2.622-.025-.125-.103-.116-.316-.033-.455 1.26-2.123 3.408-1.393 5.343-2.93.427-.34.527-1.109.41-1.641-.112-.514-.363-.139-.488.372-.469 1.93-2.865 1.523-4.315 2.577a.518.518 0 01-.543.028c-.264-.133-.999-.233-1.208-.024-1.508 1.508-4.325 1.883-6.762 1.678-.137-.012-.259.085-.305.215-.172.485-.561.619-1.022.676-.205.026-1.764-1.358-1.594-1.475.066-.046.147-.013.181.059.126.262.113.521.089.728-.058.486.298-.016.453-.48.342-1.024 1.771-1.068 2.64-1.353.348-.115.388-.547.456-.907.061-.323-.333-.514-.606-.331-.236.158-.487.23-.735.3-.72.206-1.842.3-2.584.2-.527-.072-.788.2.049 1.088-.479-.621-.98-.714-1.482-.666-1.081.104-.95-.626-.086-1.283.241-.183.463-.375.682-.562.634-.543.542-1.546-.233-1.237-.139.055-.282.11-.437.155-.201.058-.419-.124-.437-.333-.026-.309-.294-.524-.595-.45-2.612.633-4.467 1.29-6.837.484-.337-.114-.544.226-.643.567-.04.14-.18.093-.314.039-1.451-.584-3.313.16-4.703.728-.102.042-.231.585-.209.693.009.044-.011.136-.053.15-.455.143-.932.347-1.349.385-.722.065-.966-.054-1.286.596a.322.322 0 01-.102.124c-.113.082-.262.037-.377-.042-.587-.407-3.469-.1-4.061-.498a.66.66 0 01-.191-.197c-.261-.413-.595-.874-1.046-.687-.38.157-.702.326-1.047.35-.732.055-1.57.166-1.921.81-.179.33-.269.7-.162 1.06.61 2.033.535 2.776.87 4.16.11.453.66.572 1.038.299.12-.087.238-.156.353-.204.507-.208 2.735.085 3.281.137.382.037.895-.108 1.163-.383.988-1.015 2.765-.209 4.47-.379.6-.06 1.22.543 1.821.494.054-.005.109-.009.166-.009.469 0 .327.641-.072.887-.145.089-.287.181-.426.274-.35.234-.802-.054-1.017-.416a1.161 1.161 0 00-.067-.1c-.233-.315-.893-.025-1.256.121-.41.166-.796.464-.356.421.081-.008.162-.012.237-.002.242.031.207.342.02.499-.154.13-.315.255-.478.378-.769.584-2.21.271-3.174.338-.532.037-1.062.319-1.474.706-.134.126-.412.079-.535-.057-.229-.254-.924-.495-1.208-.305a5.25 5.25 0 01-3.28.873c-.808-.058-1.876.784-2.676.658-.556-.088-1.231-.435-1.689-.439-.256-.002-.219.261-.01.409.25.176.07.623-.105.874-.069.098-.133.2-.231.274-.207.155-.441-.076-.554-.308a.987.987 0 00-.39-.44c-.539-.319-.412.215-.728.756-.072.122-.246.164-.387.177-1.052.095-1.75.136-2.372.407-.728.317-1.456.033-2.1-.432a.784.784 0 00-.371-.142c-.383-.048-.56.472-.528.856.032.367.294.62.502.316.035-.051.068-.103.099-.151.22-.345.247.307-.156.381-.82.151-1.697-.409-2.23.462-.232.38-.58.836-.95.586-.34-.231-.064-.655.157-.308.109.17.23.306.414.268.14-.028.12-.317.079-.453-.104-.335-.657-2.526-.943-2.729-.51-.363-.89-.531-.995.122-.041.26-.252.477-.514.451-2.006-.201-3.658-.886-5.81-1.313-.32-.064-.58-.341-.46-.644.12-.309-.126-.616-.436-.499-.364.139-.599.5-.791.733-.437.527-.19-.648.467-.837.554-.16 1.056-.363 1.333-.75.108-.152-.049-.321-.234-.34-.244-.026-.099-.398-.057-.64.044-.257.055-.608.382-.809.343-.211.619-.612.712-1.003.067-.284.253-.471.313-.761.06-.298-.175-.565-.475-.619a4.64 4.64 0 00-.315-.043c-.866-.093-.904-1.083-.123-1.466.731-.359 1.403-.329 2.113.055.334.18.267.494-.107.559-.365.064.203.298.106.656-.067.246-.24.581-.141.688.187.201.441-.221.525-.484a2.9 2.9 0 01.502-.957c.305-.384 1.396-.98 1.858-1.144.357-.128.993.153 1.062-.221.016-.091.034-.18.058-.266.08-.293.418-.322.689-.186 1.737.865 3.942.413 5.674.14.41-.064.375-.407.217-.789a1.206 1.206 0 01-.03-.081c-.051-.157.067-.333.139-.482.072-.15.236-.137.367-.036.808.626 1.61-.356 2.257.121.319.235.861.394 1.226.241.54-.226.682-.647 1.014-1.128a.486.486 0 01.105-.109c.322-.245.729.128.534.482-.21.383.177.682.587.532.576-.21 1.214-.503 1.858-.758 1.594-.631 4.234-2.286 5.893-2.715 2.335-.605 5.517 1 6.722-1.192.082-.147.493-.262.651-.201.116.044.04.17-.081.198-.255.06-.362.244-.321.55.043.327.415.458.733.37.147-.04.275-.065.404-.077.819-.076 1.249-.765.463-1.01-.432-.134-.888-.206-1.302-.39-.51-.225-.635-.842-.119-1.054.832-.34 1.058-1.004.163-.923-.628.056-1.258.229-1.553.308-.032.008.161 1.045-.189 1.07-.319.018-.805-.719-1.139-.697-1.254.09-2.607 1.513-3.763 1.223-.427-.107-.176-.67.052-1.046.213-.35-.245-.65-.622-.487-3.039 1.313-5.446 1.202-9.125 2.437-.125.042-.271-.06-.251-.191.028-.187-.139-.249-.301-.153-1.085.643-2.51.382-3.597 1.468-.168.17-.389.095-.305-.129.07-.183-.126-.295-.285-.18a5.636 5.636 0 00-.27.208c-.39.318-2.468.453-2.762.044a1.008 1.008 0 01-.096-.166c.124.362.141.639.05.83-.16.336-.765.21-.732-.16l.007-.06c.047-.331-.357-.254-.641-.079-.538.331-1.103.64-1.6 1.003-.434.319-.62.18-.597-.358.015-.337-.435-.169-.679.065-1.074 1.028-3.535.66-5.172.478-.217-.024-1.205.612-1.413.675-.178.054-.496.224-.367.358.143.148.337.23.449.313.186.138-.166.146-.35.006-.661-.501-1.62.423-1.967-.044-.379-.596-.07-.634.19-.71.354-.1.04-.502-.308-.621-1.124-.385-1.428-1.458-.262-1.684 1.871-.362 4.12-.55 5.61-2.155.26-.28.247-.845-.065-.624-.476.336-.753.04-1.323-.083-.154-.034-.285.159-.443.307-.311.292-.642-.21-.559-.63.257-1.284 1.642-.494 2.536-.588.259-.028.191-.246.062-.472-.074-.129.022-.378.091-.51.03-.057.054-.119.087-.173.044-.073.129-.102.213-.11.944-.094 2.345.028 3.153-.31.713-.299 1.336-1.059 2.006-.674.886.508.697.121-.175-.412a3.888 3.888 0 01-1.15-1.083c-.126-.176-.22-.39-.052-.525a37.1 37.1 0 00-.29.228c-.591.472-1.093.654-1.75.87-.446.145-.571.37-.104.407.374.03.083.647-.27.774-.284.103-.569.202-.807.171-.46-.06-.242-.78-.473-1.181a.94.94 0 00-.343-.344c-.308-.171-.04.296-.051.648a1.325 1.325 0 01-.096.416c-.114.297-.53.255-.836.336a.483.483 0 01-.59-.298 2.72 2.72 0 00-.162-.383.502.502 0 00-.697-.203 1.776 1.776 0 00-.317.237c-.421.389-.974.541-1.548.539-2.87-.013-5.559 3.453-8.176 3.472-.063 0-.11-.076-.083-.131.026-.055-.052-.09-.064-.03-.107.524-.44.717-.758.838-.33.126-1.374.462-1.728.48-.26.013-.476.08-.534.232-.028.073.002.158.06.21.31.275.916-.309 1.167.149.028.05.043.13.044.187.008.412-.517.26-.927.305-.097.011-.175.072-.256.166-.258.3-.672.374-.993.145a.814.814 0 00-.897-.017c-.893.547-1.49.693-2.45 1.157-.128.062-.295-.052-.315-.192-.031-.224-.37-.356-.585-.29a.877.877 0 01-.627-.038c-.228-.099-.227-.401-.073-.598l.03-.039c.293-.386-.365-.957-.778-.704-.341.209-.633.459-.784.827-.141.345.151.55.38.257.086-.109.169-.207.257-.237.28-.098.192.43-.021.637-.275.267-.518.56-.731.88-.117.175-.458.084-.655.012-.188-.07-.433-.253-.472-.45a1.582 1.582 0 00-.365-.696c-.305-.36-.755-.039-.448.32.067.077.135.152.2.233.277.34-.281.78-.1 1.18.053.115.106.234.04.33-.035.05-.094.075-.15.094-.57.202-.968-.061-1.37-.315-.522-.332-1.066-.958-.719-1.471.39-.577-.084-1.002-.425-.395-.114.203-.215.417-.345.608-.26.384-.624.037-.764-.405-.112-.352-.536 0-.73.314-.88 1.43-2.72 1.85-4.202 2.312-.562.175-.574-.157-.203.3.02.026.042.056.065.093.025.04.042.107.04.154-.009.328-.884.275-1.147.08a1.58 1.58 0 01-.079-.063c-.286-.242-.926-.416-1.254-.233-.698.388-1.548.392-2.407.67-.493.159-1.028.045-1.315-.386-.183-.275-.38-.53-.554-.609-.294-.133-.066.28.106.554.092.148.019.434-.13.524a5.582 5.582 0 01-.886.436c-1.032.404-2.114-.417-3.117-.89-.566-.266-1.213-.315-1.807-.508-.404-.131-.746.024-.553.403.107.21-.25.222-.475.155-1.747-.523-2.939-.429-4.588-.315-.69.048-3.46-.45-3.077-1.026a5.646 5.646 0 01-1.752 1.363c-.66.322-.669.699-.908 1.393a.17.17 0 01-.038.066c-.056.055-.18-.03-.236-.084-.412-.396-1.059-1.173-1.396-1.634a.839.839 0 00-.381-.307c-.208-.077-.424.069-.404.29.023.25.121.565.11.792-.011.207-.257.22-.458.168-.284-.073-.462-.059-.636-.057-.268.002-.366-.289-.265-.537.108-.27-.33-.548-.391-.833a1.07 1.07 0 01-.02-.22c0-.285-.184-.552-.465-.601-.493-.087-1.145.483-.941.941.132.298.244.578.303.876.097.482.482 1.07.738 1.49.048.078.094.162.139.25.3.584-.025 1.372-.666 1.519-2.864.655-6.449.561-9.365-.565-.431-.166-.65-.654-.678-1.115-.054-.902-.936-.485-1.369.309-1.174 2.158-4.95-.43-7.017 1.017-.478.335-.602 1.11-.452 1.674.407 1.534-.423 3.227-.806 4.768-.046.183-.088.369-.132.554-.108.455-.372.862-.774 1.101-.605.361-1.104.472-1.754.747-.434.185-.943-.345-1.364-.13a.393.393 0 00-.096.071c-.23.236.038.335.305.562.482.412-.033 1.065-.349 1.616-.46.804-.594 1.986-1.1 2.509-.248.256-.561.72-.431 1.052.273.7.346 1.301.354 1.807.003.161-.654.822-.689.979-.014.068.053.13.116.159.071.032.08.098.041.169-.13.243-.48-.088-.64-.312-.279-.392-.862-.756-1.205-.657-.443.128.013.735.449.886.44.152.89.336 1.204.676.457.496 1.338 1.206 1.763 1.729a.741.741 0 01.122.656 8.38 8.38 0 01-.135.411c-.172.48-.142 1.056.238 1.396.47.42.547 1.074.09 1.508-.62.587-1.49 1.069-2.38 1.028-1.08-.051-2.1-.106-2.588.86-.222.439-.472.752-.821.634-.492-.166-.497-.727-.222-1.168.329-.526-.08-1.074-.473-.594-.258.316-.516.618-.8.701-.61.178-.683-.829-.336-1.362.173-.264.359-.52.558-.764 1.17-1.444 1.28-2.26-.084-.998-.562.52-1.471.734-2.22.891-.641.133-1.33.474-1.91.94-.616.496-1.288.658-1.915.175-.245-.188-.557-.132-.825.022-1.447.831-3.556 3.23-4.618 1.77-.436-.6-.717-.945-.678-.205.014.266-.312.189-.545.061a1.247 1.247 0 01-.308-.235c-.49-.52-.279-1.351.043-1.991 1.227-2.44 3.042-4.404 4.453-6.694.477-.774.334-1.592-.411-2.113-.853-.596-1.975-1.453-2.81-.831-2.427 1.806-3.275 5.684-5.33 8.008-1.107 1.252-2.072 3.274-2.082 4.945-.007 1.041-.07 2.022.497 3.085.18.337-.032.784-.256 1.093-.076.105-.066.233-.02.354.85 2.258 1.62 3.85 1.148 5.722-.034.134-.044.332.07.411.366.254.31.435.281.88-.017.271.024.591.049.896.03.385.163.767.547.719.209-.026.41-.03.504.261 2.597 6.261 4.788 9.411 8.268 15.411.512.882 1.3 1.569 2.09 2.213 1.207.983 2.281 2.336 3.504 3.286.57.443.927 1.183 1.281 1.814.372.664 1.002 1.288 1.218 2.039.092.322.498.556.788.722.236.135.04.442-.18.599a.51.51 0 00-.071.059c-.243.237.276.428.477.701.282.38.2 1.331.242 1.402.791 1.39 1.987 2.485 3.069 3.749 1.243 1.453.555 3.464-1.298 2.991-.793-.203-1.586-.467-2.29-.489-1.062-.034-2.448.518-3.394.033a2.61 2.61 0 01-.424-.269c-.632-.497-.05-1.228.199-1.992.14-.43-.262-.923-.684-1.086a14.87 14.87 0 00-1.75-.572c-2.048-.517-4.393-1.935-6.499-1.764-.73.059-1.492.207-2.19.179-.338-.013-.652-.274-.485-.568.248-.437-.326-.695-.797-.519-1.43.533-3.115.763-4.78.753-1.567-.009-2.85-1.185-4.264-1.861-1.424-.681-3.167-.681-4.445-1.364-1.337-.713-2.624-1.596-3.943-2.343-.566-.32-.794-1.047-.759-1.696.061-1.134.266-2.154-.318-3.816a1.142 1.142 0 00-.169-.321c-.37-.482-.829-.723-1.32-.876-.908-.283-3.08 1.263-4.027 1.186-.335-.027-.531-.396-.395-.704.05-.114.113-.217.175-.32.24-.395.091-.859-.171-1.238-.713-1.031-1.065-2.063-1.585-3.122-.381-.777-1.284-.74-2.144-.836-.21-.024-.408-.124-.581-.348-.207-.265-.063-.587.251-.468.461.176.125-.362-.216-.718l-.047-.049c-.354-.373-.48.04-.716.498-.098.191-.375.029-.67-.172-.444-.301-.953-.084-.82.435.045.171.112.342.176.52a1 1 0 01-1.167 1.338c-2.173-.47-4.556-3.259-5.719-1.828-.341.421-.139 1.03.392.923.495-.101 1.066-.01 1.429.341 1.902 1.84 4.009 3.106 6.135 4.327.235.134.395.327.368.597-.05.494.494.726.82.352.21-.239.403-.489.66-.686.21-.162.494-.084.682.103.407.402 1.468 1.317 1.962 1.606.23.134.484.258.669.483.192.235.07.553-.08.816a.664.664 0 00-.094.434c.08.674.405 2.138-.27 2.06-.853-.078-1.769-.189-2.724-.255-2.174-.153-2.594 1.741-.482 2.278.968.246 1.524 1.107 1.84 2.054.499 1.489 1.322 2.174 2.541 3.26.258.23.746.482.763.137.028-.602.497-.34.81.175 1.03 1.692 2.393 3.08 3.319 4.884.84 1.639-.523 3.608-1.265 5.294-.121.277-.24.556-.372.823-.681 1.374-2.33 2.923-2.449 4.451-.019.251.03.539.175.745l.045.061c.42.527.884 1.147.59 1.753-.288.594-.485 1.171-.34 1.815.487 2.149 1.74 2.191 2.72 2.987.948.772.397 2.184-.718 2.687-.823.37-1.69.704-2.428 1.144-.864.514-.496 2.044-.202 3.005.235.77.586 1.848 1.115 2.455.382.439.739.951 1.113 1.416.784.975 2.15.651 2.477-.557.082-.303.147-.615.205-.931.504-2.778 3.543-2.694 6.345-2.347 2.657.328 5.504-.473 6.879-.228a.687.687 0 01-.392-.195c-.294-.293-.06-.793.346-.877.054-.011.106-.019.158-.025.681-.078 1.74-.539 2.307-.922.288-.195.027-.485-.26-.68a.685.685 0 01-.05-.036c-.409-.311-.033-.877.452-1.042 2.619-.892 4.04-2.756 6.58-4.068.466-.24.474-.829.696-1.303.048-.102.139-.101.248-.125 4.447-.98 7.115-3.197 10.894-4.997.372-.178.527-.57.49-.981a.43.43 0 01.032-.243c.037-.067.124-.07.197-.052.717.176 1.466.075 2.05-.028.083-.014.312-.499.292-.582-.01-.04.012-.111.052-.116 3.293-.458 7.007-2.997 9.068.182.156.24-.115.773-.136 1.059-.008.111.068.308.17.352.149.064.312.141.478.233.885.493 2.949 2.52 3.21 3.499.042.157.066.317.07.474.006.258.021.524.173.732.12.165.237.327.306.62a.33.33 0 00.28.259c.118.012.198.02.255.017.214-.011.495-.096.622.077.087.119.014.249-.123.304-.128.05-.237.116-.284.233-.1.254.273.346.547.34.531-.013.482.72.617 1.356.108.506.702.543.79.033.047-.272.06-.572.134-.822.148-.5.669.009.905.474.066.129.142.261.216.405.168.329-.103.497-.463.581-.257.061.101.42.264.629.139.179.242.454.353.704.155.35.572.501.873.263a.795.795 0 00.25-.329c-.41 1.127-.102 1.109-1.183 1.629l-.056.028c-1.037.517-2.435.31-3.577.113-.951-.164-1.982-.107-2.69-.946-.155-.183-.111-.443.026-.639.174-.249-.022-.575-.231-.795-.135-.142-.258-.319-.382-.494-.253-.357-.718-.385-1.155-.393-1.579-.029-2.921-2.6-4.632-3.444-.67-.331-1.055.466-1.427 1.114a1.056 1.056 0 01-.535.453c-.552.224-.884.898-1.334 1.29a.53.53 0 01-.052.04c-.468.307-.907.707-.817 1.26.243 1.497-.538 2.432-.427 3.587.023.241-.359 1.519-.327 1.758a.245.245 0 00.034.099c.311.388 1.051-.378 1.115.664.12.618-.678 1.044-.367 1.592.464.815 1.07 1.232 1.715 1.547 1.743.853 1.615 3.048-.296 2.706-1.584-.283-3.114-1.28-4.57-.912-.417.105-.91-.074-1.02-.489-.067-.248-.28-.442-.537-.425-1.378.093-1.59 1.645-1.938 2.969-.402 1.536-1.828 2.977-2.604 4.363a9.358 9.358 0 01-1.428 1.934c-.56.58-1.232 1.44-1.7 2.096a22.079 22.079 0 01-1.45 1.762c-1.242 1.36 1.22 4.281 2.116 6.312.323.73.64 1.521 1.257 2.028.66.542 1.317 1.093 1.853 1.993.124.209-.012.45-.179.627a.308.308 0 00-.061.362c.095.211.077.547-.146.611a.26.26 0 00-.175.317c.22.833.182 1.338.214 1.723.069.846 1.213.687 2.027.45 1.508-.439 3.12.292 4.386 1.936.17.221.166.645.145.923-.021.274-.306.604-.179.847.128.245.314.331.513.379.622.151.299.628-.222.256-.628-.45-1.164-1.16-1.779-1.646-.4-.317-.97.154-.98.665a.973.973 0 00.01.166c.028.182.253.29.386.162.226-.217.422-.01.623.23.114.137.27.267.42.425.305.321.796.507 1.21.661.116.043.223.104.343.171.42.23.959-.184 1.344-.469.129-.096.273-.168.415-.198.31-.066-.038.264.073.561.15.399 1.125 1.137 1.546 1.2.085.013.166.026.245.04.546.097 1.511 1.524 1.518 2.079.004.37.549.867.717 1.196.054.104.104.217.16.313.084.147.256.195.426.195 1.544.008 2.832.798 4.23 1.468 1.864.894 2.657 2.356.684 2.977a9.31 9.31 0 00-.417.141c-.657.241-1.043.759-1.178 1.446-.243 1.239 1.156 2.091 2.419 2.085.69-.003 1.409.029 2.115 0 2.296-.098 5.528-1.227 7.462-2.469 1.174-.754 2.42-1.583 3.684-1.587a3.886 3.886 0 001.11-.193c2.214-.701 3.99-3.197 6.129-4.103 1.684-.714 3.44-1.555 5.417-2.257.6-.213 1.078.193 1.145.826.042.404.49-.21.73-.537.038-.05.078-.099.119-.146 1.106-1.257 1.084-1.692-.57-1.431-2.041.322-4.06.646-6.147 1.207-.217.058-.45-.083-.619-.234-.238-.213-.085-.497.215-.608 1.126-.418 2.098-1.751 2.805-2.663.223-.287 2.813.01 3.165-.08.118-.031.207-.167.203-.289-.057-1.75.986-1.383 2.088-1.142.932.204 2.358-.625 1.943-1.484a1.243 1.243 0 00-.5-.667c-.732-.512-.873-1.534-.26-2.183.9-.952 2.3-.513 3.786-1.047.12-.042.274.04.343.146.13.202.576.373.782.25.506-.3 1.112-.482 1.402.161.1.224.013.486-.179.64a.983.983 0 01-.14.099c-.461.267-.85.052-.695.562.117.384.35.648.64.836a.85.85 0 01.349.837c-.083.44-.08.954-.152 1.406-.038.237.352 1.106.496 1.298a.205.205 0 01.041.117 1.06 1.06 0 01-.087.412c-.257.613.15.942.81.868.727-.083 1.764-.946 2.474-1.123.117-.03.24-.045.357-.05.313-.016.55.379.412.661-.238.484-1.347 1.173-1.559 1.669a.392.392 0 00-.02.216c.03.203.237.345.416.244.344-.195.727-.757 1.153-1.305.916-1.178 1.007.423.262 1.716-.281.488-.486 1.002-.375 1.553.438 2.173 1.555 2.128 2.737 2.182 1.073.049 2.266.072 3.334-.036.627-.062 1.294-.069 1.933-.104 1.355-.074.938-.215.117-1.295-.156-.205-.294-.627-.226-.875.148-.533.6-.248.939-.148.481.142.027-.586-.456-.45-.291.082-.503.162-.754-.012-.273-.191-.317-.784-.25-1.11a.345.345 0 01.016-.058c.028-.073.115-.09.193-.078a3.726 3.726 0 011.5.591c.147.103 1.396.917 1.368.739-.008-.045-.058-.159-.097-.184-.134-.084-.243-.234-.341-.414-.301-.556-.915-.764-1.541-.851a1.48 1.48 0 01-.83-.407c-.421-.4-.383-1.097.046-1.489.823-.752 1.783-.574 2.485-1.207.38-.342 1.317-.611 1.828-.583.15.009.3-.002.435-.033.307-.071.19-.411.044-.69-.114-.218.077-.569.322-.545 2.675.256 4.35-.125 6.432-.498.637-.114 1.032.508.44.769-.486.213-.426.754.054.979.136.064.268.139.392.239.325.261.269.734.056 1.093-.223.375-.394.741-.449 1.138-.07.513-.265 1.057-.656 1.397-.267.232-.511.479-.774.682-.489.379-.678 1.069-.16.73.134-.088.264-.193.388-.3.2-.173.575-.125.74.08.056.07.06.169.037.256a4.142 4.142 0 00-.106 1.833c.388 2.329.045 4.849-2.293 5.175-2.787.389-5.673-.144-8.316 1.325-.612.34-1.272.637-1.966.544-1.336-.18-2.866-.692-4.473-.168-.335.109-.716-.087-.947-.352-.268-.309-.812-.561-1.186-.396-1.016.449-2.094.425-3.103.197-.684-.154-1.615.597-2.3.451-.295-.062-.63-.18-.938-.231-.394-.065-1.251-.219-1.133-.601-.768 1.638-2 .566-3.257.143-.665-.224-1.898 1.563-1.218 1.736.273.069.7-.294.59-.552a.633.633 0 00-.016-.035c-.227-.47-.183-.272.175.108.172.182.375.301.597.394 1.035.432 3.158-.123 4.276-.032.479.039 1 .129 1.538.112.4-.013.8.153 1.003.498.075.127.155.258.237.383.324.489.541-.146.672-.718.078-.339.333-.705.68-.732.789-.062 1.611.167 2.385.289.493.078.973.497.863.984a.613.613 0 01-.01.039c-.161.566-.846.621-.674 1.184a1.4 1.4 0 01.045.207c.046.311.414.607.68.44.473-.298 1.05-.265 1.609-.243.543.021 1.232-.215 1.842-.285.313-.036.892-.645 1.152-.822.151-.102.308.047.299.23-.007.128-.01.229.035.334.085.195.339.226.542.163 3.29-1.016 6.213-2.53 9.288-3.243 1.437-.333 2.774-1.145 4.088-1.816a4.59 4.59 0 01.656-.277c2.119-.704 4.347 1.772 6.546 1.388 2.847-.496 5.587-1.6 8.56-2.225 1.539-.323 2.873-1.354 4.29-2.037 1.08-.522 2.303-.579 3.336-.473-.248-.036.28-.857.799-.571.597.329.787.697.723 1.058-.06.339-1.995 4.277-2.021 4.62-.007.09-.052.142-.127.191-2.008 1.31-3.846 1.835-5.586 2.995-.361.24-.786.415-1.144.17-.564-.386-1.088.251-1.768.326-.719.08-1.679-.537-2.422-.102-.604.349-.71 1.857-1.347 2.078-.713.259-1.716-.883-2.347-.697-.2.063-.43.297-.647.527-.064.067-.548-.19-.459-.214-.662.195-.745 1.152-1.295 1.384-.09.042-.417-.857-.473-.876-.728-.235-1.21.853-1.772 1.544-.281.345-.857.298-.885-.146-.014-.202.044-.392.081-.546.09-.37-.286.098-.464.434-.27.511-1.605.506-2.161.664-.127.036-.25.082-.365.126-.595.222-1.598-.094-2.13.253-1.324.863-2.97 1.77-4.03 2.003.592-.045.015.989-.552 1.166-.764.237-1.197.459-1.64.915-.121.126-.307.061-.26-.109.038-.137-.099-.221-.233-.172-2.08.761-3.878 1.441-5.39 1.626-.334.041-.615.274-.662.607l-.019.125c-.061.404-.527.261-.888.454-.414.221-.698.538-.925.128a4.297 4.297 0 00-.107-.185c-.225-.357-.095.226-.27.611a.854.854 0 01-.18.243c-.443.442-1.727.431-1.85-.184-.015-.076-.042-.231-.06-.306a.518.518 0 01-.005-.027c-.122-.616-.17-.869-.49-.33-.262.438-.188 1.015-.042 1.757.066.34.277.645.618.706.821.147 1.888-.872 2.69-1.104.61-.177 1.388-.071 1.929.13.201.074.303.491.295.706-.006.167-.153.135-.2-.025a2.57 2.57 0 00-.12-.342c-.092-.199-.298-.084-.384.118-.571 1.325-1.515 1.426-2.62 1.452-.683.015-1.09.77-1.33 1.409-.178.475.357.883.843.736.976-.294 1.944-.6 2.885-.854.432-.116 1.246-1.117 1.563-1.433.207-.206.56-.259.83-.144.483.207 1.103.388 1.47.324.167-.029.158-.182.06-.321-.126-.18.143-.458.344-.368.519.235 1.027.202 1.543.109.214-.038.745.626.632.811-.085.141-.087.433.076.457.633.093 1.086.121 1.418-.399.103-.162.388-.153.438.032.036.138.208.189.324.106 1.694-1.212 4.762-.541 7.02-1.624.385-.185.74.136 1.076.398.102.079.18-.011.28-.091 1.632-1.31 4.378-.894 5.832-1.46.383-.149.96.169.72.503-.267.371-.66 1.306-.24 1.121.433-.192.84-.963 1.14-1.172-.028.025.197.611.17.635.794-.587.813-2.105 1.706-2.515.837-.385 1.484.334 2.324.385.616.037.578-.907 1.154-1.126.817-.31 1.341-1.132 2.158-1.441.847-.319 1.983-.474 2.41.254.082.141-.07.31-.208.397-.254.161.198 1.433.275 1.724.035.129.078.276.137.437.076.204.323.255.53.189.264-.084.48-.029.684.057.45.191.718-.226.268-.419-.224-.096-.468-.14-.695-.231-.221-.088-.146-.393 0-.581.097-.122.252-.175.377-.082.239.176.484.451.695.617.155.121.894.399 1.013.555.073.096.016.203-.09.259-2.829 1.479-4.102 2.289-6.837 2.265-.753-.007-1.483.278-2.197.519-1.466.493-3.231.059-4.554 1.265-.225.206-.735.278-1.035.224-.264-.048-.62-.265-.866-.154-2.124.957-4.942-.303-6.687 1.007-.413.309-.082.612.429.685.374.054.148.577-.198.73-.723.322-1.739.798-2.322.517-.479-.231-1.007-.685-1.503-.492-.31.12-.746.497-.48.697.115.088.282.034.455-.039.502-.213.395.302-.104.523-.464.207-1 .41-1.533.476-1.254.156-2.656-.446-3.862-.067-2.316.728-4.288 1.334-6.228 1.233-.874-.045-2.007-.376-2.81-.723-.135-.059-.207.053-.243.195-.142.56.672 1.303.298 1.433-.222.059-.201.326-.359.436-.205.135-.37.162-.515.127-.697-.169-1.113-.086-1.778.183-.671.271-1.412-.354-2.066-.666-.712-.34-1.54.741-2.205.857-2.122.394-4.692.655-7.04.985-1.108.156-1.151.604-.07.893.38.101.926.081 1.257-.132 1.982-1.278 4.797-.951 7.212-1.442.677-.138 1.505.207 1.925.756.156.204.18.482.029.689a.699.699 0 01-.027.035c-.387.499-.165.961.401.681.728-.36 1.612-.984 2.56-.948.485.018 1.493-.335 1.975-.278.284.034.493-.177.57-.452.399-1.432 2.096-2.191 3.483-2.466.776-.154.812.251.1.598-.364.177.29.207.691.15.19-.027.367-.024.522.043.479.207.12.779-.391.876-.471.089-.098.562.379.516.5-.049 1.004-.113 1.295.406.272.485.607.749.365.248-.101-.21-.178-.426-.05-.584.105-.13.287-.012.437.062.17.085.406.111.475.289.312.806.093 1.177-.076 1.591-.115.28.207.689.497.604.592-.172.369-.478.457.132a.527.527 0 00.204.34.348.348 0 00.147.068 5.577 5.577 0 001.968.064c.113-.017.177-.342.108-.432-.055-.07 0-.221.07-.275.21-.16.377-.538.573-.552.254-.019.102.345-.117.475a.352.352 0 00-.07.052c-.14.135.04.336.232.371.934.169 1.97-.243 2.869-.201.726.033.616-.095 1.053-.675a.645.645 0 01.149-.132c.314-.197.563-.215.778-.142.954.325.303-.576 1.296-.742.675-.057 1.58-.758 2.03-.219.27.322.008.799-.359 1.002-.542.3-.075.266.492.014.211-.095.412-.165.594-.244.827-.358 1.366-.794 1.61.073.013.046.028.09.046.129.143.316.53.077.47-.264-.024-.134-.055-.274-.072-.403-.039-.308.293-.317.575-.186.119.055.25.109.387.158.56.2 2.097-.322 2.677-.454.32-.072.703-.426.619-.743a2.2 2.2 0 01-.082-.44c-.01-.228.235-.312.464-.314 3.557-.029 6.18-1.92 9.259-2.221.416-.041.5-.4.437-.814-.028-.18.193-.168.374-.149 1.106.111 2.038.162 2.559-.793.07-.13.271-.064.273.083.003.154.244.231.382.162.582-.287 1.328-.195 1.994-.035.36.087.6.474.376.768-.162.211-.366.334-.56.464-.82.548.208 1.15.676.282.327-.605.631-1.24 1.12-1.606.495-.371.979-.782.59-1.264-.062-.077-.092-.141-.047-.201.068-.091.262-.065.375-.046.486.084 1.501.143 1.97.299.059.02.118.038.178.056a.837.837 0 00.75-.16c.776-.615 1.72-.535 2.59-.665 1.528-.229 2.913-1.42 4.433-1.696 3.018-.546 6.309-1.792 8.37-3.237.285-.2.677-.136 1.014-.052.507.125 1.78.211 2.302.229.42.014.821.118 1.132-.159.244-.216-.039-.505-.183-.797-.064-.129-.017-.367.095-.456.165-.132.287-.199.472-.277.44-.184.799.253 1.191.525.211.145.322-.187.384-.435.35-1.393 1.917-.646 3.038-.372.277.068.484-.287.249-.45-.24-.167-.153-.407.119-.517.697-.282 1.584-.473 2.162.188.258.295.062.725-.244.48-.14-.113-.271-.249-.377-.309-.27-.152-.009.448.139.719.144.264.459.28.664.061 1.983-2.118 5.184-2.448 6.727-2.605.596-.058.593-1.213.851-1.265.715-.124 1.644 1.123 2.701.245-.197.155.321-.069.884-.254.192-.066 1.889-1.107 2.916-.557.281.151.492.513.281.752-.239.273-.772.433-.914.587-.145.158.319.158.505.049.555-.324 1.123-1.52 1.742-1.697a.91.91 0 01.297-.031c.48.025.507.601.136.906l-.028.023c-.597.494-.06.86.596.449 1.053-.658 2.141-.925 2.524.965-.129-.481.236.119.117.603-.158.638.031 1.144-.41 1.856 1.965-3.253 5.117-.296 6.787-3.473.155-.294.43-.302.444.031.008.181.216.323.347.197.259-.245.276-.682.617-.853.261-.131.5.148.654.397.041.066.085.124.128.182.189.251.575.405.851.256.38-.206.054-.559-.32-.773a1.425 1.425 0 01-.319-.255c-.331-.35.027-.889.468-1.083.549-.243.959-.616 1.534-.618.349-.002.547.923.376 1.227-.136.24-.402.612-.294.867.19.447.373.907.671 1.05.245.117.388-.262.317-.524-.112-.413.169-.31.538-.093.83.487 2.435.348 3.495.135.292-.059.507-.338.408-.619-.112-.319-.303-.418-.481-.556-.236-.181.043-.523.337-.571.268-.043.569.165.563.436-.005.242.083.418.256.847.111.274.479.517.544.229.027-.118.015-.27.006-.418-.022-.395.28-.194.611.023.202.133.451.137.691.166.365.044 1.058-.267 1.425-.262.434.007 1.162.241 1.446-.087.074-.086.144-.179.211-.293.17-.288.594-.477.55-.145-.04.303.312.515.59.387a.619.619 0 01.513-.029c.354.114.728-.019.831-.377.035-.122.068-.246.104-.367.086-.286.498-.325.79-.266.346.071.34.581.669.454.956-.371 1.417-1.356 1.814-2.164.376-.766.741-2.666 1.574-2.851.146-.032.321-.01.512.045.51.147.683-.12.494-.616-.093-.245.29-.113.533-.015.478.193.862.077 1.33-.203.21-.125.496-.054.548.184a.958.958 0 01.018.097c.049.362.617.825.939.654.158-.085-.02-.197-.18-.279a1.21 1.21 0 01-.145-.087c-.313-.215-.187-.751.086-1.015a.756.756 0 01.423-.222c.139-.023.26.081.297.217.073.275.457.339.657.137 1.414-1.424 3.669-1.079 4.312-2.205.107-.186.214-.438.427-.42.164.013.276.172.383.345.183.296.372.08.167-.201-.117-.159-.125-.352.059-.424.358-.14 1.011.006 1.498.118.496.114.924-.31 1.392-.109.156.067.295.116.422.11.253-.011.055-.387-.059-.613-.132-.261.118-.132.337.062.103.092.251.134.435.101.101-.019.168-.128.194-.228.076-.29 1.423-.621 1.69-.756.076-.038.15-.08.218-.122.166-.105.092-.197-.078-.295-.097-.055-.049-.21.04-.276.351-.26.924-.726 1.405-.697.334.021.435.453.131.592-.41.188-.058.749.287.458.043-.037.084-.08.123-.127.429-.522 1.256-.24 1.779-.667.201-.164.404-.393.606-.561.489-.408.132.477-.307.937-.262.274-.481.622-.693.929-.308.448-2.364 1.37-2.85 1.613-.207.103-.273.399-.203.62.076.239.031.382-.043.502-.172.281.328.59.453.285.156-.38.51-.68.794-.385.047.05.088.119.119.216.052.162-.06.32-.22.375-.266.092-.044.248.229.18.188-.048.36-.048.516-.006.509.137 1.164.308 1.665.146.687-.223 1.535-.192 2.815-.718.427-.175.766-.596.566-1.012-.226-.472.483-.598 1.007-.607 2.121-.036 3.648-1.73 5.235-2.531.836-.421 1.3-1.051 1.238-1.985-.01-.141.037-.262.19-.369a.437.437 0 01.523.013c.531.422 1.348.927 2.012.788.994-.208 2.042.095 3.166-.092.61-.102.91-.718 1.215-1.257.444-.783 1.381-.937 2.294-1.155.839-.201.294-.649-.459-1.069a.55.55 0 01-.166-.801c.611-.846 1.886-1.413 2.577-.813.282.245 1.137.432 1.51.447.443.017 2.824.334 3.268.328.961-.011 2.04-.523 2.738-1.115-.196.155.427.26.985.059 2.613-.978 5.958-1.534 8.317-3.354.328-.253.715.044 1.066.265.202.128.28-.192.228-.425-.068-.299-.116-.583-.101-.815.031-.455.564-.257.493.193a1.15 1.15 0 00-.009.071c-.028.337.43-.186.597-.48.011-.018.021-.035.033-.052.284-.426.489-.444.669-.923.043-.114.19-.157.312-.166.311-.024.591.054.814.308.051.059.09.149.087.227-.018.465.135.443.521.183.173-.117.355-.216.584-.392.279-.214.485-.754.142-.833-.107-.024-.228.029-.357.038-.553.039-.41-.854-.065-1.287 3.466-4.363 8.685-5.178 13.116-6.847.556-.21.923.166.428.496-.314.209.296.121.584-.123 1.32-1.115 1.73-1.897 3.06-1.423.398.142.902.235 1.09-.144a2.16 2.16 0 00.167-.6c.09-.541.698-.819 1.184-1.073.734-.384 1.61-1.167 2.459-.945.262.069.973-.097 1.242-.14.116-.018.241-.032.358-.069.19-.059.767.173.957.112.188-.06.501-.059.641.08.207.205.425.18.644.13.333-.076 1.127-.524 1.444-.652.207-.084.473-.071.779-.006.264.056.613-.069.505-.316-.033-.075-.086-.138-.132-.196-.183-.226.203-.305.493-.322.429-.027.847-.255 1.26-.428.717-.3 2.864-.612 3.621-.789.204-.047.415-.078.626-.091.637-.039 2.75-1.019 3.376-1.138.567-.108 1.656-.537 1.976-1.017.2-.299.41-.59.631-.872.211-.269.569-.133.535.207a.34.34 0 00.421.362c3.779-.887 6.459-3.246 11.315-3.492.346-.017.548-.445.663-.772.089-.249.366-.174.599-.05 1.606.852 3.267-1.708 4.413-1.2.817.362 1.172.931 1.095.041-.031-.352.382-.559.726-.637 1.612-.364 2.808-1.113 3.947-1.232.893-.093 1.876-.231 2.648-.689.505-.3 1.019-.502 1.692-.956.292-.197.661-.009.384.208-.251.198.046.4.339.272 1.017-.448 1.749-.932 2.577-1.027.71-.081 2.081-.738 2.467-1.338.245-.38-.204-.705-.65-.633-.738.12-1.519.15-2.214-.267-.588-.352-.215-1.165.392-.847.557.291.274-.418-.34-.551-1.825-.397-2.6 1.407-4.54 2.006a.462.462 0 01-.58-.433c0-.294-.164-.543-.456-.511-.45.05-.852.344-1.222.688-.498.465-1.163.675-1.843.677-3.568.013-6.798 2.895-10.246 3.228-1.324.128-2.725.721-3.861 1.414-.539.328-1.148.598-1.775.85-.943.379-1.529-.203-.611-.64.284-.135.554-.281.743-.491.299-.334-.137-.674-.554-.509-.842.332-2.018.812-2.946.917-.335.038-1.06.821-1.368.958a.366.366 0 00-.067.037c-.275.182-.429.014-.581-.159-.211-.24-.421 0-.553.292-.538 1.189-3.097 1.4-4.51 1.558-.08.009-.243.307-.216.383.022.059-.044.18-.107.178-.372-.017-.874.667-1.447.952-.384.191-.327-.344-.317-.772a.412.412 0 00-.188-.343c-.812-.449-.489.934-.946 1.412-.185.192-.545-.106-.386-.32.261-.352.007-.45-.404-.298-1.703.627-4.18.944-5.592 1.693-.263.14-.49.614-.235.767.502.301.038 1.205-.44.868-.062-.043-.11-.124-.139-.257-.09-.57-.321-.951-.877-.796-2.211.615-4.348 1.48-6.803 2.169-1.829.513-4.164.236-5.784 1.228-.613.377-1.212.73-1.689.746-1.7.064-4.105 1.559-6.273 2.479-3.151 1.342-6.721 1.433-9.264 3.309-.339.251-.727-.059-1.091-.272-.202-.117-.281.193-.216.417.069.239.143.481.146.668.004.206-.218.294-.424.289a2.978 2.978 0 01-1.57-.466c-.355-.227-.977-.015-1.104.386-.101.32.093.457.331.222a1.21 1.21 0 01.263-.209c.319-.165.329.454.203.79-.074.197-.176.372-.459.401-.111.011-.215-.049-.286-.134-1.048-1.256-.736-.775-1.367-.636-.121.027-.243-.264-.203-.382.036-.105-.112-.184-.197-.11-.6.519-1.596.246-2.365.412-.517.112-.196.681.332.643.648-.047.569.556.013.893-.014.007-.027.016-.04.024-.418.263-.815.189-.742-.3a.444.444 0 00-.002-.179c-.062-.222-.359-.006-.527.151-.63.587-1.935-.359-2.998-.409-.207-.01-.177 1.015-.359 1.115-.717.283-1.225.437-1.833.911-.676.528-1.791.166-2.441.77-.156.145-.47.188-.635.054-.304-.245-.845-.12-1.117.16-.403.412-.969.739-1.416.93-.351.149-.818-.222-.498-.43.481-.312.216-.453-.274-.155-1.265.768-1.718 1.713-2.37 2.435-.067.074-.15.15-.25.142-.575-.046-.46-.171-.729.34-.213.403-.661.736-1.14 1.017-.414.243-.942-.015-1.052-.482a2.552 2.552 0 00-.009-.04c-.11-.47.394-.827.767-1.134.271-.222.071-.672.107-1.02.036-.349.351-.779.435-1.201.036-.184.223-.374.368-.254.199.164.556.42.786.302 1.284-.66 2.927-.695 4.147-1.46.165-.103.355.016.338.21-.02.229-.018.048.15-.11.156-.148.56-.094.57-.357.004-.126-.111-.215-.203-.302-.269-.255-.157-.635.05-.983.133-.222.538-.032.773.078.133.064.285-.063.298-.211.091-1.108.867-.724 1.418-.77.41-.035.773-.195.802.215.022.32.372-.173.285-.482l-.033-.116a.69.69 0 01.39-.835c.852-.353 2.169-.812 2.853-1.049.187-.065.467-.115.4-.301a1.266 1.266 0 00-.077-.16c-.391-.712.424-.476 1.179-.779l.062-.025c1.052-.422 2.916-.202 4.031-.406.625-.114 1.205-.19 1.793-.722.256-.232.8-.253 1.138-.183.047.01.095.018.143.022.381.039-.148-.804.173-1.012a.276.276 0 01.175-.029c3.648.452 7.751-1.646 11.362-1.956a.427.427 0 01-.265-.09c-.214-.155-.082-.485.173-.559l.235-.067c.073-.021.158.052.175.126.034.155.593.502.75.524.598.084 1.326.551 1.693.401.105-.043-.023-.172-.089-.264-.111-.156.594-.727.665-.904.021-.053.052-.109.094-.177.097-.154-.015-.315-.191-.27-.135.035-.264.051-.37.002-.137-.064-.105-.254.002-.362 1.466-1.481 4.128-1.107 6.084-1.343.329-.04.736-.296.567-.581-.383-.646.165-.861.576-1.49.227-.348.428-.688.67-.522a.544.544 0 01.107.768c-.239.299-.698.544-.935.833-.424.516.63.478.904-.131.435-.97 1.919-3.32 2.828-3.872.369-.224.791-.406 1.167-.625.632-.368 1.541-.666 2.264-.551.853.135.644-.619-.195-.821a3.824 3.824 0 01-2.068-1.26c-.179-.21-.058-.446.162-.612.165-.124-.043-.342-.245-.303-.35.067-.451.334-.521.626-.162.677-.468 1.468.226 1.527.527.045.294.704-.2.892-1.395.533-2.68.924-3.884.696 1.02.102 1.927-.163 2.055-1.181a.374.374 0 00-.001-.1c-.123-1.48 1.428-3.042 3.019-2.801.416.063.862-.23 1.154-.533.217-.225.52-.236.823-.168.319.072.802-.368.948-.661.103-.208.311-.09.465.084.468.529 1.357.211 1.339-.337-.012-.375.158-.81.446-.569.298.25.799.231.998-.103.13-.219.258-.441.376-.669.158-.308.494-.176.825-.074.116.035.277-.016.333-.123.22-.425-.097-.536.064-.864.012-.025.029-.041.057-.036.084.016.476-.039.516-.115.507-.969 1.995.126 2.643.081.242-.017.019-.223-.153-.394a.358.358 0 01-.035-.041c-.132-.179.055-.402.275-.436.238-.036.476-.071.707-.087.555-.04 2.436.521 2.984.614.216.037.333-.203.351-.421.09-1.137 1.249-1.972 2.231-2.142.536-.093 1.836-.441 2.315-.699.407-.219.938-.6.478-.565-.31.023-.681.219-.996.254-.351.04-.418-.43-.119-.618.392-.247.976-.337 1.498-.476.63-.167 1.563-.241 1.988.254.14.162.263.333.368.523.206.376.628.485.706.063.026-.137.045-.279.067-.418.046-.299-.268-.462-.476-.682-.058-.062-.06-.173-.026-.252.386-.896 1.392-1.13 2.098-.516.476.414.121 1.905.397 2.471.109.223.146-.051.193-.295.12-.626.596-.966.994-1.365.502-.502.001-1.039-.242-.373-.05.137-.121.258-.262.321-.169.076-.405-.145-.475-.317-.205-.502.441-1.607.936-1.827.088-.039.173-.081.256-.126.416-.225.578-.095.611.376.001.02.004.041.007.063.038.232.307.432.483.278.213-.187.073-.658.061-1.027-.009-.276.259-.351.524-.273.546.162 1.489.126 1.919-.247.942-.817 2.021-.883 3.416-1.218.748-.179 1.037-1.082.337-.763-.524.238-.477-.435-.063-.835 1.812-1.753 4.022-2.322 5.843-4.054.124-.118.31-.027.258.136-.063.194.11.229.249.08.577-.613 1.224-.5 1.603-.688.421-.209.757-.724 1.228-.719 3.47.034 8.821-2.191 12.132-1.904.595.051 1.212.072 1.723-.238.795-.482 1.592-1.18 2.41-1.412.96-.271 2.747-.256 3.721-.471.474-.105.947-.196 1.293-.403.29-.173.2-.802.386-1.084.065-.099.196-.14.313-.134 3.017.156 4.212-2.016 6.812-2.961 1.023-.373 1.293-.823.232-.577-.443.102-.829.044-.998-.624a.41.41 0 00-.441-.316c-1.701.228-2.641-.261-4.058-.06-.073.011-.216-.204-.221-.278-.002-.025-.024-.057-.049-.058-.063-.003-.129.007-.192.012-.204.015-.107-.208.093-.252.232-.052.436-.126.61-.224.595-.333-.017-.88-.652-.634-.759.293-1.571.519-2.373.528-.942.011-1.367-1.025-.449-1.241a8.31 8.31 0 01.828-.138c.943-.12.754-.665-.187-.806a14.895 14.895 0 00-1.529-.165c-.665-.032-1.699-.115-2.121-.631-.131-.161-.081-.539.061-.691.693-.741 1.369-.282 1.922-.709-.169.115-.587-.251-.659-.553-.06-.255.304-.26.567-.251a.714.714 0 00.335-.064c.468-.215.716-.06.621.446a.65.65 0 00-.009.059c-.035.34.448.174.636-.112.462-.701 1.094-1.48 1.738-1.537.271-.024.55-.179.428-.422a.254.254 0 01.159-.346c.197-.049.38-.108.537-.188.182-.094.564-.028.62.169a.208.208 0 00.34.097c.612-.564 1.015-1.048 1.318-1.602.348-.638.999-1.103 1.723-1.178.245-.026.502-.065.753-.119 1.256-.274.785-.918-.437-.52a1.366 1.366 0 01-.104.031c-1.075.29-2.306-.447-3.384-.169-2.541.656-5.231 1.083-6.645 1.941-1.124.693-3.078.315-4.073.854-.502.269-1.098.715-1.705.917-.454.151-.443-1.073.035-1.069.251.003.646-.041.545-.27-.071-.16-.231-.264-.24-.381-.011-.158.212-.2.37-.218 10.563-1.163 20.08-9.708 31.251-12.779 1.406-.386 2.256-2.334 3.615-2.861.277-.107.587-.174.907-.209 1.157-.129 3.004-.412 3.981-1.045.407-.264-.05-.838-.532-.785-.442.049-.927.215-1.311.093-.507-.16-.561-.834-.748-1.331-.196-.52-.411-1.052-.101-1.169.194-.104.387-.188.578-.254 1.901-.661 1.756-2.271-.135-1.582.185-.08-.004-1.039-.188-1.543-.149-.406-.136.161-.051.584.048.24.027.389-.037.486-.567.851-1.987 1.01-2.516.135-.252-.417-.388-1.061-.126-1.472.469-.735 1.374-1.122 1.97-1.754.385-.408.339-1.26-.055-1.66-.772-.784-2.108-.169-3.208-.152-3.501.055-7.403 3.187-10.687 3.704-.296.047-.632.105-.835-.115-.064-.069-.125-.144-.191-.203-.269-.237-.65.086-.963.263-1.41.8-3.21 2.214-5.033 2.106-1.067-.064-2.24-.1-3.275.166-.499.128-1.015.195-1.561.277-.457.069-.682.538-.88.955a.78.78 0 01-.191.253c-.325.281-.668-.067-.924-.412-.169-.229-.068-.656.185-.786.142-.074.28-.149.407-.233.424-.281.216-.641-.274-.775a.455.455 0 01-.299-.256c-.159-.318.13-.647.435-.831.591-.357.914-.935 1.317-1.448.202-.257.161-1.396-.13-1.247a.4.4 0 00-.17.204c-.388 1.519-1.823 2.194-2.382 3.576-.287.71-.899 1.097-1.174.381-.199-.518-.457-1.16-1.006-1.24-1.617-.235-3.213.975-4.755.907-.426-.018-.791-.371-.734-.794.038-.281.162-.492.292-.699.246-.392-.465-.575-.388-1.031.099-.594-.089-.721-.602-.405-.844.519-1.906.863-2.83 1.32a2.612 2.612 0 01-1.212.287c-11.533-.255-22.737 6.598-33.371 8.071a6.119 6.119 0 00-2.025.658c-2.06 1.09-4.217 1.898-5.929 2.613-.926.387-1.684 1.245-2.398 1.95-1.724 1.703-5.23 2.584-7.51 3.404-.45.162-.839.301-1.095.41.915-.256.403-1.099 1.311-1.381.733-.228 1.241-.52 1.368-1.258.044-.257.284-.464.514-.342l.06.033c.174.102.133.274-.009.417-.106.105.057.257.204.23.462-.085.308-.48.086-.935-.41-.843.446-1.354 1.322-1.022.12.046.23.169.325.439.121.342-.151.73-.506.653-.502-.11.072.477.563.329.461-.139.899-.302 1.31-.476 1.286-.546 1.191-1.3-.026-.615l-.075.041c-.46.243-.962-.009-1.189-.476l-.105-.216c-.193-.385-.647-.662-1.077-.632-1.528.106-1.311-1.568.106-.985.587.242 1.071.65 2.077.303-.127.034-.322-.186-.085-.317.932-.461 1.593-.453 2.279-.708.642-.239 1.335-.323 1.95-.021.103.051.206.097.305.134.95.355-.192-.424-1.108-.859-.491-.233-1.031-.76-1.532-.552-.658.274-1.115.841-1.557 1.276-.527.519-.633-.076-.306-.739.233-.475-.268-.878-.425-.372-.101.328-.169.683-.538.795-.172.052-.337-.124-.297-.299.07-.307-.177-.408-.429-.219-.545.41-1.211.752-1.795.745-.704-.008-.564-.919.049-1.266.925-.523 1.804-.949 2.577-1.418.42-.254 1.199.596 1.255.108a.654.654 0 00-.017-.211l-.011-.039c-.084-.316-.322-.585-.646-.628-1.276-.172-1.812.825-2.576.981-.593.12-.508-.963.007-1.28.088-.054.176-.103.265-.143.401-.182 1.022-.61 1.223-1.001.286-.557.105-1.423-.393-1.044-1.137.863-2.072 2.222-3.19 3.099-.505.396-1.165.059-.824-.483.05-.08.102-.158.149-.234.386-.627-.613-.657-1.251-.29-.537.309-1.132.508-1.76.634-1.451.291-2.209-2.477-.729-2.473a.558.558 0 00.208-.024c.086-.032.104-.08.082-.139-.25-.683.143-.689.869-.737 1.922-.125 4.407-1.586 6.475-2.839.203-.123.423.022.447.257.025.238.337.15.437-.068.857-1.874 3.19-1.336 4.463-2.061.137-.077.088-.183-.059-.239-.107-.041-.034-.189.081-.198 3.232-.257 7.215-1.376 9.842-3.603.242-.206.626-.102.712.204a.421.421 0 00.645.231c2.727-1.885 6.52-4.087 10.226-4.251.667-.03 1.183-.993 1.842-1.103 9.862-1.962 20.055-8.4 29.308-9.91-.589.13-.269-.366.333-.344 3.916.144 6.97-1.35 10.303-2.439a.573.573 0 01.542.078c.169.136.328.303.486.478.288.321.676.173.388-.147-.27-.3.074-.786.471-.717 1.687.294 3.44-.311 4.802-1.211a.28.28 0 01.424.151c.064.224.368.271.513.089.827-1.036 1.939-1.692 3.021-1.649.232.01.492-.238.434-.463-.024-.096.01-.243.097-.29.401-.218.774-.403 1.103-.49.668-.177 1.64.066 2.298.276.513.163 1.241.333 1.05-.17-.064-.17-.152-.342-.223-.505-.172-.4.196-.676.627-.732 8.707-1.128 19.746-4.855 28.595-8.253-7.424 1.776-14.908 3.329-22.204 6.496-.4.173-.971-.024-1.369.152-.479.212-1.332-.117-1.815.086-3.814 1.607-9.106 1.12-12.475 3.285-.217.139-.512-.025-.601-.266-.095-.253-.182-.059-.134.206.032.177.027.322-.004.447-.121.495-1.007.372-1.515.416a2.96 2.96 0 00-.413.075c-.857.209-3.196.696-4.077.665a10.058 10.058 0 01-1.075-.104c-.395-.058-.732.194-.733.593l-.002.113c-.013.387-.399.152-.78.218-.552.094-1.584.832-2.094 1.063a3.734 3.734 0 01-.657.204c-.618.149-1.344-.323-1.962-.471-.441-.105-.942.22-1.474.49-.406.206-.799.595-.53.961.173.236-.227.334-.517.38-5.54.871-10.539 3.052-16.645 3.685-.144.015-.172-.115-.156-.259.006-.061-.056-.131-.117-.125-.515.053-.21.775-.624.921-.118.042-.264-.182-.314-.297-.117-.271-.942-.438-1.227-.362-.646.172-1.399.129-2.085.133-.318.002-.601.287-.466.575l.012.026c.196.373.405.807.088 1.084-.178.156-.503-.067-.422-.29.049-.135.141-.233.188-.368.134-.386-.44-.76-.708-.452-.167.192-.197.493-.333.709-.238.378-.604-.168-.983-.403-.213-.133-.493-.015-.806.066-.433.112-1.061.446-1.093.893-.017.241-.009.401.045.598a.253.253 0 01-.261.323c-.233-.022-.432-.01-.577.095-.115.081-.428.089-.467-.046a.123.123 0 00-.212-.048c-.261.294-.709.768-1.161.978-.556.259-.492-.578-.028-.978.555-.48 1.015-1.282.316-1.056-.665.215-1.424.63-2.125.82-1.009.274-.871-.882.121-1.208 3.761-1.238 7.1-1.818 11.209-2.835.392-.097.507-.524.347-.895-.091-.209.203-.207.415-.292.316-.128.672-.372.903-.246.175.095.23.397.066.508-.18.121-.53-.136-.656-.016-.274.259.326.593.691.497.411-.109.864-.26 1.295-.425.443-.169.406-1.431.5-1.895.033-.164.239-.314.406-.304 4.243.233 8.595-2.121 12.068-2.951 5.079-1.227 10.331-1.936 15.943-3.013a.227.227 0 01.261.163c.048.179.283.229.416.101 1.435-1.374 3.307-.518 4.506-1.642.329-.31.761-.582 1.19-.437.196.066.382.16.55.303.329.28.952.592 1.373.5.382-.084.026-.32-.365-.33a1.048 1.048 0 01-.677-.267c-.502-.437-.114-1.2.527-1.382a23.754 23.754 0 013.21-.673c1.137-.15 2.259-.612 3.3-1.092.926-.428 1.983-.701 2.948-1.037 1.187-.415.937-1.129-.248-.709-.366.13-.724.22-1.057.195-.895-.067-.236-1.538.427-2.141.233-.212.468-.423.729-.576.499-.293 1.11-1.091 1.68-1.19.393-.068.862-.302 1.037-.66.731-1.496 3.162-1.053 4.681-1.899.55-.305 1.299-.443 1.884-.212.198.078.4.143.604.199.391.108.689-.328.298-.438-.353-.098-.394-.506-.726-.351a2.492 2.492 0 01-.197.085c-.37.135-.272-.344.088-.502 3.436-1.507 6.122-2.902 9.066-4.118 1.226-.507 1.865-2.645 3.189-2.712 1.208-.061 1.508-1.154 2.714-1.242.617-.045 1.282-.06 1.595-.171.986-.35 1.965-.918 2.814-1.508 1.144-.797.919-1.9-.254-1.145-.215.138-.443.25-.697.288-.385.058-.68-.297-.706-.685a2.088 2.088 0 01-.006-.11c-.021-.58.674-.74 1.093-1.141.432-.413-.193-.86-.781-.756-.067.011-.133.02-.199.025-.84.07-1.249-1.084-.726-1.744.237-.3.488-.577.759-.792.965-.767 2.943-1.135 4.094-1.574.134-.051.272-.1.413-.151 1.064-.382 1.444-1.957 2.491-2.383.401-.163.894-.279 1.367-.401.447-.117.823-.45.891-.907.096-.648-.069-1.061-.007-1.428.095-.563.25-.578-.313-.672-.181-.03-.239-.26-.237-.443.012-1.346.066-2.652 1.165-3.125.228-.098.468.097.39.332-.096.292.169.458.423.285.294-.2.572-.439.814-.686.554-.569 1.548-1.283 2.034-1.91a.917.917 0 01.248-.222c.656-.391 1.686-.33 2.408-.651.939-.418.217-1.194-.81-1.152a.748.748 0 01-.082 0c-.759-.05-.396-1.306.339-1.112.553.147-.024-.69-.582-.562-.679.155-1.464.618-1.978.284-.327-.211-.084-.67.288-.785l.274-.084c.205-.063.332-.287.202-.457-.153-.202-.364-.304-.544-.412-.229-.139-1.184-.874-1.297-.63-.061.132.128.227.275.218.175-.01.321.065.436.224.212.293-.027.67-.381.741-.09.018-.185.036-.282.053-.803.141-1.338-.663-.723-1.198 1.404-1.219 3.577-1.864 5.044-2.145a.502.502 0 00.413-.504l-.005-.254c-.003-.382-.707-.88-1.021-.66-.313.218-.202.55-.489.297a3.977 3.977 0 01-.34-.355c-.174-.198-.212-.495-.058-.71.316-.44.554-.55.776-.531.395.035.406-.175.411-.573zM311.847 204.88c.473-.004.942.661.506.846a.416.416 0 01-.268-.001c-.469-.127-.724-.84-.238-.845zm-34.194 11.739c.124.094.076.813-.042.915-.198.171-.424.369-.652.573-.179.16-.474.056-.501-.183-.018-.153.065-.356.213-.398.455-.129.777-.381.857-.813.014-.074.065-.139.125-.094zm-81.985 34.353c-.274.086-.543-.088-.704-.326a.898.898 0 00-.108-.131c-.191-.187-.469-.381-.384-.634a.53.53 0 01.208-.268c.288-.202.649.159.818.468.148.272.296.56.58.438.386-.166.055.312-.347.434l-.063.019zM50.62 243.16c.053.172.355.341.2.434-.044.026-.133-.03-.241-.092-.246-.141-.752-.384-.826-.657-.037-.14.019-.3.16-.33a.587.587 0 01.322.03c.22.075.317.393.386.615zM-4.365 127.53c.85-.633.827 1.349-.223 1.208-.459-.062-.336-.738.014-1.04.066-.058.136-.114.208-.168zm217.382-40.168c.684-.206.981.555.291.737-.621.164-.996-.504-.386-.707l.095-.03zm180.864-23.898c.236.036.417.253.348.482-.046.152-.146.259-.192.406-.108.348-.16.791-.514.704-.15-.037-.294-.093-.454-.102-.27-.015-.483-.141-.229-.234.149-.055.24-.21.181-.357a1.437 1.437 0 00-.03-.067c-.106-.206-.337-.434-.175-.6.231-.234.717-.284 1.065-.232zm-6.205 13.555c.102.076.15.161.117.285-.09.342-.352.546-.694.681-.334.132-.711-.14-.575-.473.109-.266.319-.45.527-.635.155-.136.459.02.625.142zm-9.661 13.318c.485-.237.913.117.518.486-.263.244-.58.419-.855.398-.513-.039-.125-.657.337-.884zm-33.599-23.95c.419-.092.951-.112.648.192-.233.234-.644.451-.992.464-.509.02-.154-.545.344-.655zm-6.146.265c.296-.286.587-.05.288.233-.269.255-.016.592-.329.792-.183.117-.404.22-.625.28-.689.19-.362-.496.217-.916.163-.119.308-.253.449-.39zm-16.088 115.557c.742-.299 1.264.768.479.919a1.905 1.905 0 01-.109.018c-.528.067-.864-.739-.37-.937zm-24.095-54.379c.243.053.377.265.4.512.003.036.004.068.003.098-.035.813-1.198-.782-.403-.61zm-24.032 8.289c-.72.444-1.514-.334-.695-.544.157-.04.301-.09.387-.187.118-.133.082-.358-.096-.366-.536-.022-1.156.575-1.442 1.03-1.763 2.805-6.063 2.073-8.964 3.177-2.539.961-4.382 2.961-6.349 3.223a.358.358 0 01-.268-.083c-.242-.177-1.042-.195-1.337-.138-.449.087-.991-.037-1.508.054-.252.045-.621-.181-.701-.424-.136-.414-.779-.511-.997-.889a2.644 2.644 0 01-.066-.121c-.111-.215.02-.56.222-.427a.38.38 0 01.062.052c.314.324.671.332.811-.096l.021-.065c.137-.446.515-.706.823-.355.065.075.131.149.199.215.18.177.467.17.554-.067.179-.493.014-1.27-.509-1.233-.424.031-.896.167-1.347.075-.521-.105-.326-.775.193-.664.674.144.653-.229-.035-.274a7.156 7.156 0 01-.146-.01c-.308-.024-.628.069-.801.326-.993 1.477-.531 3.614-1.621 4.695-.289.286-.451.794-.057.896.499.129.745.563.322.857-1.028.713-2.297.352-3.021 1.169-.236.267-.606.502-.947.4-.354-.106-.808-.263-1.061.005-.268.285-.565.599-.846.746-.469.245-.83.089-.917.611-.043.257-.362.134-.594.015-1.069-.547-2.179.213-3.264.836-1.255.72-3.394 1.8-4.776 2.231-1.301.405-2.519 1.457-3.721 2.098-1.549.826-3.906.733-5.277.134a.298.298 0 00-.229-.005c-1.012.412-1.209.874-1.667 1.262-.097.083.112.863.236.892.118.028.455.417.402.526-.268.546-1.186.687-2.361 1.002.032-.008.14-.428.359-.436-1.899.089-4.539 3.17-7.37 2.799-1.029-.136-.633-1.409-.155-2.33-.277.48-1.879.203-2.655.775-.608.448-1.016 1.416-1.511.847a1.22 1.22 0 01-.32-.677 2.821 2.821 0 01-.038-.619c.045-.507.464-.752-.045-.759-.35-.005-.02-.655.325-.713.843-.141 1.586.009 2.411-.086.431-.05.666-.467.244-.567-.562-.133-1.161-.892-.696-1.236 1.7-1.26 3.302-1.866 5.544-2.191.647-.094 1.008-.882.391-1.096-.727-.252-.38-.842.322-1.155 1.25-.558 2.11-1.609 3.155-1.843.344-.077.645.189.736.53.012.043.045.126.06.168.188.515.101 1.058.229.524.013-.053.022-.109.029-.169.066-.604.24-1.444.757-1.765.117-.072.242-.136.388-.183.277-.091.595.179.451.433-.23.405-.395.875.041.711.741-.277 1.485-1.51 2.131-2.173.251-.275.373-.19.456.005.259.613.708.483 1.3.179 1.29-.663 3.652-1.363 5.072-1.258.496.037 1.204-.045 1.202-.543a1.2 1.2 0 00-.13-.497c-.111-.245.008-.581.272-.632.458-.09 1.569-.221 2.025-.319.624-.136 1.435.16 2.163.356.206.055.535.087.543-.126.012-.287-.758-.685-.327-.794l.175-.045c.458-.114.679.405.83-.043.041-.124.079-.251.131-.368.237-.535.843-.014.932.565.029.184.063.374.105.569.155.723.502.752.251.057a11.574 11.574 0 01-.049-.136c-.122-.351.135-.824.487-.703.678.232.877-.075.96-.787.104-.901.636-1.595 1.341-.807.202.226.121.617-.182.625-.263.008-.473-.139-.691-.27-.129-.078-.22.118-.149.251.101.188 1.124.474 1.334.515.234.046.496.165.848.247.196.045.367-.129.36-.33a17.511 17.511 0 01-.008-.339c-.015-.593.915-1.776 1.48-1.597l.059.02c.174.058.315.209.303.391-.033.49-.583.56-1.063.685-.084.021-.189.047-.205.132-.03.163.205.453.454.737.281.321.578.425.41.033-.091-.21.198-.447.425-.421.292.033.57.101.904.012.228-.06.544-.045.629.175.153.394.424.481.531.072.273-1.044-.111-2.154.614-2.5.169-.08.271-.306.13-.429-.179-.155-.388-.475-.243-.661 1.769-2.273 5.404-.575 6.986-2.18.247-.251.733-.286.997-.052.345.304.847-.005.927.448.109.619-.107 1.106-.404 1.567-.208.323-.673.199-.642-.184.02-.258-.2-.403-.457-.424-.274-.022-.576-.065-.89-.094-1.263-.117-.753 1.095.509 1.222.301.03.599.052.896.05.497-.003.849.456 1.139.859.245.341.711.228.519-.145-.063-.122-.145-.25-.227-.379-.391-.609.363-1.016 1.006-1.346.454-.232.986-.458 1.569-.215.179.075.438.071.355-.105-.123-.262-.358-.66-.097-.536.218.105.506.359.799.471.299.114.36-.259.064-.38-.198-.081-.396-.264-.318-.463.083-.209.388.149.649.186.159.022.204-.243.049-.279-.21-.049-.404-.157-.315-.352a.418.418 0 01.049-.085c.314-.423 1.657-.165 2.179-.229a.41.41 0 00.197-.077c.332-.248.622-.645 1.035-.599 2.891.327 5.718-.36 8.391-1.086a.362.362 0 01.442.249c.075.264.41.351.623.178.664-.537 1.365-.857 2.086-1.087 1.395-.446 2.231.879.794 1.164-1.192.237-2.552.261-3.69.786-.903.413-1.523 1.254-2.294 1.728zm12.556-5.912c1.161-.248 1.811.933.666 1.249l-.095.025c-1.357.348-1.941-.98-.571-1.274zm-24.325-48.73c.395-.058.611.486.369.804-.493.646-1.283-.589-.493-.78.041-.01.082-.018.124-.024zm-8.745 61.567c.239-.069.507.058.533.306.033.319-.079.523-.289.644-.227.13-.486-.056-.558-.308l-.014-.051a.478.478 0 01.328-.591zm-20.005-64.47c.509-.015.744.558.241.633-.646.097-.894-.613-.241-.632zm16.637 59.351c.185.777-.399 1.303-.565.523l-.008-.038c-.12-.593.434-1.074.573-.485zm-.662 1.379c.078.083.164.202.119.307-.124.292-.573-.058-.741-.326-.077-.122-.168-.205-.252-.309-.215-.269.072-.628.319-.387.201.197.36.508.555.715zm-16.149-54.617c.496.015.839.674.394.895-.268.133-.581.094-.77-.27-.134-.257.085-.634.376-.625zm-7.406-2.177c.484.151.02.677-.482.75-.437.063-.759.164-.506-.199.239-.342.649-.657.988-.551zm17.851 69.478c.609-.152 1.152.78.525.795-.475.012-.986-.68-.525-.795zm-20.357-71.19c.771-.057 1.371.66.613.816-.754.154-1.299.325-1.352-.443-.01-.14-.064-.208-.233-.114.235-.167.585-.23.972-.258zm32.762 131.739c.37-.098.749.181.565.516-.033.06-.067.12-.096.182-.125.263-.292.451-.474.224-.213-.268-.749-.53-.469-.727.127-.09.295-.148.474-.195zm-4.332.408c.225-.32.57.551.18.579-.172.012-.352-.139-.307-.305a.853.853 0 01.127-.274zm2.983 6.677c.69-.195.262 1.369-.365 1.021a.368.368 0 01-.166-.249c-.086-.403.183-.673.531-.772zm-1.487-6.092c.339-.245.592.269.445.661a1.138 1.138 0 01-.103.21c-.364.582-.898-.468-.342-.871zm-4.308.574c.59-.063 1.019.815.552 1.182a.914.914 0 01-.404.187c-.357.066-.706-.405-.357-.504.106-.03.236-.041.363-.054.295-.032.449-.443.153-.419-.504.04-.811-.338-.307-.392zm-5.943 4.386c.128-.061.348-.024.334.116a.786.786 0 01-.039.183c-.071.203-.489-.207-.295-.299zm-1.14-1.276c.131.032.225.165.152.278-.31.481-1.441.598-1.855.41-.048-.022-.092-.094-.104-.146-.067-.301 1.507-.615 1.807-.542zm-19.805-59.032c.788-.367 1.198.153.472.633-.379.25-.782.479-1.246.748-.36.208-.682.162-.362-.103.311-.259.36-.975.74-1.114.138-.05.269-.105.396-.164zm17.737 61.34c.379-.22.651.089.33.388a2.695 2.695 0 01-.501.379c-.439.253-.268-.512.171-.767zm-1.482-2.117c.166-.589.891-.108.583.42a.846.846 0 01-.127.17c-.27.279-.561-.216-.456-.59zm-.674.453c-.071.242-.185 1.033-.425 1.111-.447.146-.952.258-1.435.404-.344.104-.736-.192-.485-.449.536-.55 1.782-.059 1.612-1.214-.025-.172.037-.371.209-.391a.657.657 0 01.302.048c.168.063.273.319.222.491zM197.79 90.728c.141.059.293.304.324.454.159.775-1.357-.546-.567-.51a.714.714 0 01.243.055zm30.371 129.482c1.694-.617 1.924.548.259 1.239-.207.086-.417.178-.628.277-.846.397-1.082 1.082-.194.791.341-.112.636.396.45.703-.123.205-.374.309-.661.382-.64.164-1.446-.101-1.505-.759-.083-.917.533-2.009 1.402-2.315.3-.106.591-.214.877-.318zm-19.021-63.705c.758-.372 1.663.494.974.98-.781.549-1.831-.56-.974-.98zm-1.444 3.263c.267-.253.721.047.493.335-.571.722-2.644.38-1.05.017.221-.051.393-.196.557-.352zm14.793 64.618c.33-.081.974.024.793.311a.42.42 0 01-.2.158c-.448.191-1.066-.353-.593-.469zm-1.763-.597c.249-.071.515.093.485.35a1.214 1.214 0 01-.105.379c-.137.291-.629.113-.7-.201-.042-.186.039-.447.222-.5l.098-.028zm-4.784 4.817c.386.124.787.613.441.824-.057.035-.115.048-.169.032-.177-.054-.323-.206-.317-.021.008.214-.163.473-.322.329-.135-.121-.096-.322-.12-.646-.019-.251.069-.556.32-.549a.61.61 0 01.167.031zm-1.903.506c.204-.143.339.16.443.386.069.15.27.221.213.376a.378.378 0 01-.017.035c-.199.338-1.007-.434-.734-.716a.572.572 0 01.095-.081zm-5.028 4.43c.403-.065.894.382.486.404-.421.023-1.052-.271-.642-.373.05-.012.102-.022.156-.031zm2.605 9.765c.328.296.067.867-.35.722a1.719 1.719 0 01-.243-.103c-.535-.276.146-1.023.593-.619zm-3.568-7.114c.336-.307.367.038.744.292.215.144.62.287.535.532-.12.342-.423.402-.782.397-.473-.007-.981-.719-.657-1.064a2.97 2.97 0 01.16-.157zM169.187 97.426c.379-.085.989.2 1.088.575.059.223-.207.44-.436.407-.559-.08-.951-.104-1.315-.071-.734.066-1.156-.417-.454-.642.347-.11.739-.185 1.117-.27zm40.149 144.99c.174.048.316.239.358.414.12.511-.21.874-.605.981-.778.21-.531-1.608.247-1.395zm-3.462-6.855c.568-.161 1.155.337.589.503a1.674 1.674 0 01-.384.063c-.406.02-.596-.455-.205-.566zM165.961 98.365c.355-.032.674.35.576.692a.377.377 0 01-.15.209c-.64.453-1.207-.832-.426-.901zm37.672 141.403c.288-.429.994.014.676.421a.607.607 0 01-.344.219c-.333.073-.522-.357-.332-.64zm-2.983 3.35c-1.46.214-2.295 1.731-3.421 1.728a.278.278 0 01-.256-.183c-.212-.558-.025-.795-.061-1.211-.011-.125.207-.428.332-.434.141-.006 2.179.027 2.319.043.375.042.775.115 1.087.057zm.082-.442c-.295.14-.783.12-.911-.181a1.591 1.591 0 01-.124-.567c-.015-.626.448.294 1.024.044.057-.025.118-.056.182-.086.594-.276.422.51-.171.79zm-2.355 6.712c.498.035.815.898.316.872-.502-.027-.818-.907-.316-.872zm-54.986-148.84a.425.425 0 01.339.421c.015.401-.322.806-.718.746-.57-.085-1.174-.576-.702-.907.324-.227.748-.326 1.081-.26zm36.89 147.405c.698-.164 1.075.513.395.742a.71.71 0 00-.362.237c-.255.337-.497.744-.919.71-.377-.031-.687-.078-.963.002-.364.106-.914.065-1.016-.3-.076-.274.138-.549.417-.602.783-.147 1.586-.588 2.448-.789zm-41.264-146.672c.624-.019.269.755-.329.931-.325.096-.653-.233-.473-.52.159-.254.478-.401.802-.411zm36.825 148.541c.839-.2 1.376.8.687 1.318-1.04.782-2.596 1.719-3.783 2.253l-.056.024c-.883.347-1.459-.538-.612-.964.997-.502 1.825-2.135 2.907-2.41.305-.078.59-.157.857-.221zm-.374-4.203c.125.238.354.404.252.652-.135.329-.554.472-.926.459-.359-.012-.577-.368-.522-.723a1.23 1.23 0 01.442-.795c.256-.209.6.115.754.407zm-2.395-.05c.321.092.635.449.433.714-.153.202-.528.072-.94.081-.346.008-.831-.134-1.031-.417-.171-.241.05-.536.346-.527.411.014.817.042 1.192.149zM129.284 97.068c.221-.346.661.586.251.585a.317.317 0 01-.317-.339.531.531 0 01.066-.246zm44.166 158.104c.175.04.375.183.28.334a.374.374 0 01-.185.14c-.277.109-1.142-.41-1.431-.338-.191.047-.473-.057-.408-.243.202-.575 1.11-.036 1.744.107zm-2.643-4.014c.238-.13.65.016.72.279a.327.327 0 01-.227.4l-.272.077c-.296.084-.67-.088-.582-.383.053-.178.197-.282.361-.373zm-42.8-154.518c.343-.048.531.4.329.681-.352.492-1.088-.119-.641-.527a.58.58 0 01.312-.154zm.961 4.88c.126.133.289.316.151.435-.495.424-1.134-1.167-.587-.812.148.096.303.238.436.377zm-1.672 1.816c.297.008.533.37.405.639-.32.669-1.404-.327-.71-.588a.799.799 0 01.305-.051zm-2.015.122c.015-.143.186-.242.165-.1-.017.116-.094.231-.045.337.108.229.298.231.48.257.468.066.223.875-.149 1.168a.386.386 0 01-.11.06c-.181.066-.369-.099-.493-.247-.197-.233-.523-.471-.373-.737.151-.267.487-.382.525-.738zm40.353 154.754c.28-.104.373-.398.08-.339-.192.039-.406-.034-.426-.23a.93.93 0 01.001-.175c.052-.532.171-.83.543-.446l.082.087c.377.404.48 1.394-.039 1.586a.336.336 0 01-.103.02c-.267.014-.482-.319-.25-.452a.718.718 0 01.112-.051zM120.923 96.63c.445-.152.845.403.674.84-.159.408-.586.581-.874.2-.254-.335-.197-.904.2-1.04zm1.721 6.94c.296-.15.663.073.643.404a.819.819 0 01-.021.137c-.118.499-.783.737-.976.262-.066-.163-.079-.411.034-.547a1.01 1.01 0 01.32-.256zm38.684 152.777c.121.191.302.524.301.75v.032c.004.237-.247.413-.38.218-.114-.168-.071-.416-.247-.517a.693.693 0 01-.224-.183c-.11-.143.091-.187.245-.282.114-.07.167-.215.246-.108.02.028.04.059.059.09zm-.445 1.419c-.022.415-.611.099-.746-.295-.211-.617.578-.664.716-.026.024.112.036.22.03.321zm-44.747-155.754c.146-.058.451.025.578.116.086.06.115.157.05.239-.204.259-.416-.207-.773-.148-.211.035-.555-.121-.763-.17-.167-.04-.272-.227-.109-.278.258-.081.667.379 1.017.241zm33.186 148.134c1.33-.516 1.631.503.289.99-1.181.428-1.682-.419-.519-.898.075-.031.152-.062.23-.092zm2.091 1.585a.529.529 0 01.639.374.48.48 0 01-.321.594c-.223.061-.434.094-.622.066a.452.452 0 01-.367-.538c.068-.292.351-.41.671-.496zm-1.191 1.363a.414.414 0 01.507.293c.072.267-.135.567-.41.534a.575.575 0 01-.45-.27c-.137-.214.039-.473.284-.539l.069-.018zm.565 5.231c.051.021.109.122.099.176-.021.107-.299.208-.337.311-.18.49-.281-.178-.501-.577-.13-.236-.391-.541-.136-.629l.032-.011c.232-.074.498.078.574.309.069.209.15.372.269.421zm-6.909-4.939c.415-.087.911.286.528.468-.394.187-1.014-.345-.591-.454a.984.984 0 01.063-.014zM91.571 96.631c.141-.483.742.478.256.35a.646.646 0 01-.098-.034c-.118-.053-.194-.192-.158-.317zm20.911 158.094c-.038.4-.367.839-.6.511-.771-1.085-.219-2.069 1.219-2.522.427-.135.514-.505.066-.501-.213.001-.43-.138-.413-.351.02-.266.273-.338.509-.426.351-.129.649-.394.762-.037.107.337.484.605.806.456 1.262-.584 1.693-.848 2.962-1.335.534-.205 1.165.21 1.722.08l.178-.044c.58-.135.818.193.521-.323-.142-.245.236-.519.519-.518.996.003 1.311.433 2.169.113.42-.156.569-.719.153-.554-.607.24-.232-.268.384-.482a2.53 2.53 0 00.688-.374c.332-.248.868-.043.901.371.03.381.426.541.465.16.01-.099.004-.21-.015-.333-.056-.368.055-.798.424-.843.312-.038.567.08.8.262.506.398.717 1.164.284 1.641-.73.805-2.135.959-3.401 1.229-1.693.362-3.501 1.276-5.208 1.559-1.379.229-2.709.583-4.145.857-.562.107-.595.146-.118.464.074.049.107.146.115.236.045.498-.381.689-.784.586-.344-.087-.93-.236-.963.118zM82.004 91.315c.34-.501.99.115.483.446a.868.868 0 01-.156.082c-.301.118-.508-.259-.327-.527zm-.721-2.407c.257-.074.549.055.565.322.04.652-.597.834-.882.237-.112-.235.066-.488.317-.56zm5.867 23.217c.48-.01.63.393.185.573-.286.115-.606.162-.878.079-.537-.165.131-.64.693-.652zm-6.464-20.646c.157.272.372 1.109.09 1.247-.533.262-1.187.287-1.81.316-.414.02-1.416-.846-1.462-1.258-.022-.207.096-.483.304-.488.88-.024 1.733.473 2.392.092.164-.095.39-.073.486.091zm40.673 154.302c.387.091.735.423.359.554-.509.178-1.325-.705-.789-.646.126.014.271.055.43.092zM82.275 104.93c.356-.217.844.186.925.595.044.224-.036.599-.25.517-.096-.037-.175-.121-.254-.208-.252-.284-.766-.671-.452-.884l.031-.02zm.378 3.131c.317-.105.746.009.832.332a.384.384 0 01-.096.381c-.432.409-.858.408-1.349.308-.672-.137-.851-.843-.167-.895.258-.019.523-.04.78-.126zm-2.98.166c.309.4.26 1.377-.228 1.506-1.099.288-2.304-.044-3.526.446-.374.15-.848.069-.935-.324-.087-.388.303-.868.687-.77 1.035.266 2.211.161 2.593-.537.145-.264.402-.527.585-.288a.965.965 0 01.064.095c.196.333.646.547.474.201-.15-.298.008-.66.224-.406l.062.077zm36.686 136.056c.168.016.337.142.368.308.029.154.026.253 0 .314-.17.387-.79-.665-.368-.622zm-4.695-8.64c.067.251.005.835-.205.989-2.142 1.573-5.641 1.801-7.954 2.283-.173.036-.361.121-.38.297-.02.179.081.374.233.536.303.319.623.836.196.732-.346-.084-.723-.383-.687-.737a1.33 1.33 0 00-.071-.651c-.336-.802-1.167-.727-.532-1.321 2.179-2.035 5.306-1.271 9.006-2.428.162-.051.35.136.394.3zm4.133 18.867c.248.188.506.453.23.599-.267.141-.804-.01-.976-.258a1.275 1.275 0 01-.128-.227c-.074-.172.008-.385.191-.424.289-.061.476.152.683.31zM73.869 109.336c.17-.094.362.035.376.227.057.81-.582 1.056-1.21 1.311-.15.06-.333-.045-.343-.207-.016-.282.638-.898.85-1.085a1.8 1.8 0 01.327-.246zm35.705 143.551c.569-.088 1.197.128 1.248.702.047.525-.263 1.173-.78 1.076-.337-.063-.658-.162-1.007-.268-.785-.239-1.272-1.192-.471-1.371.306-.068.653-.085 1.01-.139zm-4.163 7.318a.133.133 0 01.093-.163c.151-.043.233.152.096.227-3.143 1.721-7.275 3.192-11.459 3.166-.359-.002-.622.154-.664.51a.418.418 0 01-.027.112c-.048.115-.197.127-.322.127-.138 0-.27-.012-.401-.032-.58-.09-1.095-.775-.559-1.016.307-.138.739-.174 1.085-.285.099-.031.139-.185.114-.285-.055-.221.158-.968.366-1.058 1.981-.86 5.064-1.331 7.462-3.242.427-.341.977-.546 1.498-.383a3.5 3.5 0 01.417.158c.605.277 1.119.237.745-.312l-.027-.041c-.192-.292.008-.655.325-.508.197.09.394.235.553.294.308.115.676-.423.795-.117.152.388.476.655.806.401.362-.279.693-.508 1.015-.653.396-.179.773-.825.345-.753-.472.079-.711-.209-.329-.497.564-.428 1.406-.444 2.02-.226.234.083.441.397.476.641.139.97-.466 2.335-1.445 2.339a9.283 9.283 0 00-.723.022c-.807.068-.417.83.377.668.549-.111 1.119-.281 1.673-.411 1.715-.4 1.871 1.546.122 1.749-1.118.13-2.293.055-3.462.429-.353.112-.753-.068-.849-.426l-.116-.435zm2.224-13c-.053-.634 1.02-.052.562.39a.274.274 0 01-.267.076c-.158-.039-.281-.304-.295-.466zm-.653 1.381c-.14.142-.312.065-.277-.132.026-.144-.13-.259-.271-.22-1.218.34-1.917.637-2.543.98-1.417.776-3.314-.086-2.041-1.079.955-.745 2.542-1.172 3.571-1.533.489-.171 1.074-.213 1.439.155.536.54.684 1.26.122 1.829zm-.677 5.341c.176.002.305.194.276.368-.072.424-1.518 1.286-1.946 1.325-.381.035-.152-.388.146-.628.464-.373.835-1.075 1.524-1.065zm-12.148-11.022c.185-.003.255-.272.07-.281-.177-.008-.336-.141-.205-.261.136-.125.381-.16.422-.358.025-.117-.038-.24-.133-.313a.49.49 0 00-.057-.037c-.887-.486-1.486-.518-.63-1.056.353-.222.73-.41 1.076-.599.635-.349 1.6-.294 1.67.427l.005.063c.02.287.046.885.333.891.502.01.749-.428.324-.694a1.946 1.946 0 01-.152-.104c-.388-.3-.044-.809.435-.915.795-.177 1.226-.208 1.574-.629.254-.307.509-.528.853-.328.398.232 1.096.038 1.05.496-.046.468-.436.507-.846.536-.683.048-.547.85.076.566a2.74 2.74 0 00.25-.132c1.136-.666.732.376-.45.957-1.849.909-3.79 2.154-6.032 1.8-.6-.094-.683-.509-.159-.201.164.096.34.175.526.172zm8.638 10.639c.268-.347.748-.511.672-.08-.08.452.174 1.242-.205.982a2.583 2.583 0 01-.275-.224c-.141-.129-.284-.292-.268-.483a.359.359 0 01.076-.195zm-3.037 1.016c1.166-.338 1.582.673.387.887a5.343 5.343 0 01-.864.088c-1.085.015-.565-.673.477-.975zm-7.904-23.948c.163-.129.35-.266.347-.058-.004.245.222.543.126.768-.17.396-.56.473-1.002.448-.856-.048-1.474-1.07-.617-1.043.431.013.897.082 1.146-.115zm-2.147-.081c.063.223-.08.446-.303.509l-.23.065c-.22.063-.36-.195-.464-.401-.069-.137-.23-.234-.128-.349a.577.577 0 01.146-.107c.276-.153.615-.445.786-.179.076.119.14.275.193.462zm6.998 25.517c.3.108.32.199.033.336-.78.374-1.843.621-2.963.914-1.257.329-2.025-.653-.754-.922.95-.201 2.004-.277 2.955-.662.234-.095.492.248.73.334zM81 231.15c.666-.195.768-.444.087-.306-.568.116-1.311-.006-1.789.321a.918.918 0 01-.053.034c-.312.188-.678-.053-.91-.333-.117-.14-.227-.268-.296-.408-.18-.364.272-.681.458-.32.115.222.219.475.412.472a.187.187 0 00.078-.026c.28-.161.606-1.432.895-1.577 1.151-.576 2.052-.835 3.27-.863.335-.008.554.501.378.787-.195.317-.69 1.166-.334 1.277.182.057.367-.072.54-.273.269-.314 1.07-.306 1.325.02a.57.57 0 01-.07.761c-.22.194-.76.126-1.173.329-.258.125-.2.487.084.515.293.029.624-.075.952-.214.368-.157.933-1.751 1.229-2.021.155-.141.398.002.454.203.424 1.528 1.283 1.855 2.252 1.866.312.003.58.216.606.527.028.325-.214.726-.54.746-2.567.162-6.266 2.851-9.35 3.301-.314.046-.62-.162-.594-.479.036-.425-.385-.567-.54-.17-.078.199-.14.41-.233.596-.17.339-.58.163-.679-.203-.086-.321-.383-.463-.597-.208a.593.593 0 01-.136.124c-.13.083-.352.099-.36.253-.008.157.268.286.265.549-.002.192-.197.308-.381.36l-.47.133c-.187.053-.383-.149-.493-.31-.113-.165-.196-.338-.154-.534.11-.519.17-1.075.518-1.4.174-.163.337-.429.229-.642-.12-.237.205-.71.426-.857.205-.136.404-.317.631-.354.322-.051.709-.018.728-.344l.003-.086c.004-.396.265-.765.66-.797.981-.078 1.772-.186 2.672-.449zm9.68 29.418c-.385.261-.982.106-.819-.33a.854.854 0 01.734-.567 4.35 4.35 0 00.311-.036c.747-.113 2.005-1.535 2.745-1.687.45-.093.966-.121 1.41-.071.64.073.685.775.129 1.101-1.443.848-3.34.796-4.51 1.59zm-.2 1.475c.482.128.712.875.213.856-.452-.019-.878-.607-.49-.841.074-.045.17-.044.277-.015zm-2.415-2.136c.562.183 1.314.447 1.172 1.02a.625.625 0 01-.21.337c-.36.299-.98-.147-.74-.548.217-.361-.145-.661-.566-.672-.702-.017-1.345.134-1.936.187-1.131.101-.655-1.314.106-2.157.13-.144.261-.297.402-.456a.541.541 0 01.78-.056c.049.043.097.085.146.125.255.207.59.684.3.84-.33.179-.57.419-.342.717.255.334.551.553.888.663zm-6.337 2.09c.117.277.326.591.058.726-.347.176-.936-.026-1.013-.622a.433.433 0 01.064-.293.846.846 0 01.234-.233c.242-.165.542.152.657.422zm-49.972-163.6c.254.336.49 1.33.088 1.203-.21-.066-.448-.194-.694-.285-.374-.138-.763-.493-.367-.537.195-.021.422-.016.555-.091.22-.125.265-.491.418-.29zm-6.446 5.86c.653.121.613.839-.046.927-.723.097-1.46.104-2.03.752-.27.309-.641.661-.915.356-.219-.244-.385-.629-.645-.752-.244-.116-.591-.209-.554-.476.059-.427.154-1.219.488-1.492.481-.391.964-.597 1.562-.841.342-.139.747-.09.894.249.235.539.598 1.165 1.177 1.265l.069.012zm38.436 154.847c.172.051.306.25.224.41-.281.554-1.12-.45-.499-.449a.95.95 0 01.275.039zm.079 6.346c.403.144.76.47.338.545-.423.076-1.282-.442-.91-.657.12-.069.329.025.572.112zm-9.572-.838c.173-.595 1.21.308.656.587a1.402 1.402 0 01-.083.038c-.258.11-.651-.356-.573-.625zM10.625 126.698c.237.459.038 1.006-.367 1.328-.694.55-1.118 1.631-1.72.981-.35-.379-.642-.923-.823-1.51-.438-1.419 1.431-2.473 2.473-1.414.16.164.308.364.437.615zM30.86 235.124c.241.041.4.267.438.509.053.345-.062.549-.265.681-.338.219-.763-.079-.998-.406-.206-.286-.014-.675.33-.754.174-.04.341-.055.495-.03zm-42.107-98.447a.29.29 0 01.155.174c.194.549.138.891-.018 1.15-.439.731-.77 1.452-.476 2.253.418 1.139.86 1.739.834 2.629-.017.583-.557 1.15-1.079.89-.594-.297-1.019-.865-1.226-1.496-.531-1.62-.497-2.008-.555-3.858-.006-.193.069-.386.24-.474.283-.144.637-.231.867-.422.283-.233.92-.987 1.258-.846zm15.02 62.847c.209.078.383.23.22.382-.21.194-.638.192-.932.121a.307.307 0 01-.216-.419.847.847 0 01.198-.299c.19-.19.477.121.73.215zm-18.178-58.099c.041.154-.053.323-.208.292-.158-.032-.29-.132-.458-.141-.14-.008-.34-.143-.38-.278-.078-.278.776-.524.903-.265.055.113.103.242.143.392zm25.734 103.24c.673-.48 1.438 1.165.612 1.166-.316.001-.65-.162-.773-.502-.077-.216-.026-.531.161-.664zm-9.224-2.363a.265.265 0 01-.195.19.32.32 0 01-.379-.214c-.08-.232-.176-.423-.251-.583-.246-.522.493-.311.778.191.063.11.092.223.047.416z" fill="url(#paint0_linear)"/><defs><linearGradient id="paint0_linear" x1="-11.539" y1="104.64" x2="195.795" y2="351.49" gradientUnits="userSpaceOnUse"><stop stop-color="#E7F2FB"/><stop offset="1" stop-color="#E3E8FB"/></linearGradient></defs></svg>