<svg width="41" height="29" xmlns="http://www.w3.org/2000/svg"><path fill="#163993" d="M35.46 12.697c1.2-.935 1.995-2.49 1.995-4.244 0-2.869-2.093-5.189-4.681-5.189s-4.68 2.32-4.68 5.189c0 1.753.786 3.309 1.995 4.244a7.976 7.976 0 00-2.766 1.799 10.232 10.232 0 00-3.797-2.293c1.712-1.151 2.864-3.247 2.864-5.63C26.39 2.94 23.737 0 20.46 0c-3.278 0-5.93 2.95-5.93 6.573 0 2.383 1.143 4.479 2.863 5.63a10.317 10.317 0 00-3.756 2.266 8.031 8.031 0 00-2.734-1.763c1.2-.935 1.996-2.49 1.996-4.244 0-2.869-2.093-5.189-4.681-5.189s-4.681 2.32-4.681 5.189c0 1.753.787 3.309 1.996 4.244C2.312 13.938 0 17.328 0 21.312v.593c0 .018.016.036.032.036h9.922c-.057.495-.09 1.007-.09 1.52v.611c0 2.644 1.931 4.784 4.316 4.784h12.575c2.385 0 4.315-2.14 4.315-4.784v-.611c0-.513-.032-1.025-.089-1.52h9.987c.016 0 .032-.018.032-.036v-.593c-.016-3.993-2.32-7.383-5.54-8.615zm-6.07-4.253c0-2.068 1.517-3.75 3.383-3.75s3.383 1.682 3.383 3.75c0 2.041-1.485 3.705-3.318 3.75h-.13c-1.841-.036-3.318-1.7-3.318-3.75zm-13.58-1.87c0-2.833 2.077-5.135 4.632-5.135 2.556 0 4.632 2.302 4.632 5.134 0 2.734-1.938 4.973-4.364 5.126h-.536c-2.425-.153-4.364-2.392-4.364-5.126zm-11 1.87c0-2.068 1.517-3.75 3.383-3.75 1.865 0 3.382 1.682 3.382 3.75 0 2.041-1.484 3.705-3.318 3.75H8.13c-1.834-.036-3.318-1.7-3.318-3.75zm5.37 12.05H1.314c.365-3.831 3.286-6.835 6.83-6.862h.098c1.688.01 3.229.702 4.421 1.826a12.234 12.234 0 00-2.482 5.035zm19.575 3.578c0 1.844-1.355 3.346-3.018 3.346H14.164c-1.663 0-3.018-1.502-3.018-3.346v-.611c0-5.584 4.024-10.152 9.03-10.314.089.009.186.009.275.009.09 0 .187 0 .276-.01 5.006.163 9.03 4.73 9.03 10.315v.611zm.966-3.579a12.205 12.205 0 00-2.458-5c1.2-1.15 2.758-1.843 4.461-1.86h.098c3.545.026 6.465 3.03 6.83 6.86h-8.931z"/></svg>