<svg width="57" height="57" fill="none" xmlns="http://www.w3.org/2000/svg"><path d="M41.637 54.773c-.293 0-.58.12-.787.327a1.122 1.122 0 00-.327.787c0 .292.12.58.327.787.207.207.494.326.787.326.292 0 .58-.12.787-.326.207-.207.326-.495.326-.787 0-.293-.12-.58-.326-.787a1.122 1.122 0 00-.787-.327z" fill="#6B83DA"/><path d="M52.324 0H4.676A4.68 4.68 0 000 4.676v47.648A4.68 4.68 0 004.676 57h32.508a1.113 1.113 0 100-2.227H4.676a2.452 2.452 0 01-2.45-2.449V4.676c0-1.35 1.1-2.45 2.45-2.45h47.648c1.35 0 2.45 1.1 2.45 2.45v47.648c0 1.35-1.1 2.45-2.45 2.45H46.09a1.113 1.113 0 100 2.226h6.234A4.68 4.68 0 0057 52.324V4.676A4.68 4.68 0 0052.324 0z" fill="#6B83DA"/><path d="M10.91 7.57a1.113 1.113 0 100-2.226H6.457c-.615 0-1.113.498-1.113 1.113v38.297c0 .615.498 1.113 1.113 1.113h44.086c.615 0 1.113-.498 1.113-1.113V6.457c0-.615-.498-1.113-1.113-1.113H19.816a1.113 1.113 0 100 2.226H49.43v28.066a10.41 10.41 0 00-5.356-3.58 6.54 6.54 0 002.009-4.719v-.727a6.569 6.569 0 00-6.561-6.56 6.569 6.569 0 00-6.562 6.56v.727c0 1.851.772 3.524 2.01 4.719a10.43 10.43 0 00-6.47 5.324 10.43 10.43 0 00-6.47-5.325 6.54 6.54 0 002.01-4.718v-.727a6.569 6.569 0 00-6.561-6.56 6.569 6.569 0 00-6.562 6.56v.727c0 1.851.772 3.524 2.01 4.719a10.41 10.41 0 00-5.357 3.58V7.57h3.34zm24.277 19.04a4.34 4.34 0 014.335-4.334 4.34 4.34 0 014.334 4.334v.727a4.34 4.34 0 01-4.334 4.335 4.34 4.34 0 01-4.335-4.335v-.727zm2.582 7.288h3.505c4.497 0 8.156 3.659 8.156 8.155v1.588H29.613v-1.588c0-4.496 3.659-8.155 8.156-8.155zM13.144 26.61a4.34 4.34 0 014.335-4.334 4.34 4.34 0 014.334 4.334v.727a4.34 4.34 0 01-4.334 4.335 4.34 4.34 0 01-4.335-4.335v-.727zm2.582 7.288h3.505c4.497 0 8.156 3.659 8.156 8.155v1.588H7.57v-1.588c0-4.496 3.659-8.155 8.155-8.155z" fill="#6B83DA"/><path d="M16.15 7.244c.207-.207.327-.494.327-.787 0-.293-.12-.58-.327-.787a1.122 1.122 0 00-.787-.326c-.292 0-.58.119-.787.326a1.122 1.122 0 00-.326.787c0 .293.12.58.326.787.207.207.495.326.787.326.293 0 .58-.119.787-.326zm8.914 12.108a26.829 26.829 0 002.81 2.255 1.108 1.108 0 001.252 0c.058-.04 1.425-.973 2.81-2.255 2.044-1.89 3.038-3.506 3.038-4.939 0-2.487-1.893-4.51-4.218-4.51a4.03 4.03 0 00-2.256.699 4.032 4.032 0 00-2.256-.7c-2.325 0-4.218 2.024-4.218 4.511 0 1.433.994 3.049 3.038 4.94zm1.18-7.223c.534 0 1.036.24 1.414.678a1.113 1.113 0 001.684 0c.378-.437.88-.678 1.414-.678 1.098 0 1.991 1.025 1.991 2.284 0 1.246-2.346 3.492-4.247 4.906-1.902-1.412-4.247-3.657-4.247-4.906 0-1.26.893-2.284 1.991-2.284z" fill="#6B83DA"/></svg>