<svg xmlns="http://www.w3.org/2000/svg"><defs><clipPath id="clip0"><path fill="#fff" d="M0 0h66v66H0z"/></clipPath></defs><symbol id="sprite-arrow-down"><path d="M1 1l4.5 4L10 1" stroke="#3C445E" stroke-width="1.5"/></symbol><symbol id="sprite-arrow-left"><circle opacity=".4" r="30.5" transform="matrix(-1 0 0 1 31 31)" stroke="#CCD1DD"/><path d="M30 40l-8-9m0 0l8-9m-8 9h19" stroke="#CCD1DD" stroke-width="1.5"/></symbol><symbol id="sprite-arrow-right"><circle opacity=".4" cx="31" cy="31" r="30.5" stroke="#CCD1DD"/><path opacity=".4" d="M32 40l8-9m0 0l-8-9m8 9H21" stroke="#CCD1DD" stroke-width="1.5"/></symbol><symbol id="sprite-brush"><path fill="#163993" d="M1.012 18.712l2.343 2.343a.625.625 0 00.01.01l2.808 2.807.01.01L8.99 26.69l.01.01 2.807 2.808.01.01 2.343 2.343a.664.664 0 00.94 0l7.512-7.512.94-.94a3.325 3.325 0 000-4.695l-1.88-1.879a.66.66 0 010-.939l.927-.926 8.045-7.205a3.989 3.989 0 00.19-5.813A3.958 3.958 0 0028.018.784a3.957 3.957 0 00-3 1.36v.001l-.001.001-7.115 8.129-.924.924a.665.665 0 01-.939 0L14.16 9.321a3.297 3.297 0 00-2.348-.973c-.887 0-1.72.345-2.347.972l-.94.94-7.513 7.512a.666.666 0 000 .94zm25.003-15.69a2.638 2.638 0 012.002-.909c.711 0 1.378.276 1.879.777a2.659 2.659 0 01-.134 3.881l-.002.002-.003.002-7.59 6.798-2.873-2.873 6.721-7.678zm-15.611 7.239a1.978 1.978 0 011.408-.584c.532 0 1.032.207 1.408.584l1.879 1.878c.777.776 2.04.776 2.817 0l.47-.47 2.817 2.818-.47.469a1.98 1.98 0 00-.583 1.409c0 .532.207 1.032.584 1.408l1.878 1.879c.777.776.777 2.04 0 2.817l-.47.47L9.934 10.73l.47-.47zm-1.41 1.408l12.209 12.209-6.573 6.573-1.41-1.409 3.288-3.286a.664.664 0 10-.94-.94l-3.287 3.287-1.878-1.878 3.287-3.287a.664.664 0 10-.94-.939l-3.286 3.287-1.878-1.878 3.287-3.287a.664.664 0 10-.94-.939L6.648 22.47l-1.88-1.88 3.287-3.286a.664.664 0 10-.939-.94L3.83 19.651l-1.408-1.408 6.573-6.574z"/></symbol><symbol id="sprite-cards"><path fill-rule="evenodd" clip-rule="evenodd" d="M44.88 4.638a1.92 1.92 0 012.725.29l17.183 21.617c.67.842.535 2.078-.3 2.761L30.61 56.99a1.57 1.57 0 01-2.229-.237l1.513-1.236a.35.35 0 00-.496-.052L63.275 27.78 46.093 6.163l-3.845 3.142-1.212-1.525 3.845-3.142z" fill="#6B83DA"/><path fill-rule="evenodd" clip-rule="evenodd" d="M28.227 1.652a1.922 1.922 0 012.676-.598l23.14 14.812a1.98 1.98 0 01.62 2.706L31.55 55.697a1.795 1.795 0 01-2.5.558l1.029-1.652a.127.127 0 00-.177.04l23.113-37.125-23.14-14.812-2.806 4.507-1.648-1.055 2.806-4.506z" fill="#6B83DA"/><path fill-rule="evenodd" clip-rule="evenodd" d="M13.359 4.299a1.934 1.934 0 012.412-1.32l26.29 7.662a1.968 1.968 0 011.354 2.415L31.343 55.65a1.38 1.38 0 01-1.795.916l.635-1.833a.555.555 0 00-.722.368l12.072-42.593-26.291-7.66-1.836 6.475-1.883-.549L13.36 4.3z" fill="#6B83DA"/><path fill-rule="evenodd" clip-rule="evenodd" d="M0 11.468c0-1.071.879-1.94 1.963-1.94h27.351c1.084 0 1.963.869 1.963 1.94v43.788c0 1.07-.879 1.94-1.963 1.94H1.963A1.951 1.951 0 010 55.255V11.468zm29.314 0H1.963v43.788h27.351V11.468z" fill="#6B83DA"/><path fill-rule="evenodd" clip-rule="evenodd" d="M22.505 46.923a1.951 1.951 0 00-1.963 1.94 1.95 1.95 0 001.962 1.939 1.951 1.951 0 001.963-1.94 1.95 1.95 0 00-1.962-1.939zm-3.926 1.94c0-2.142 1.757-3.879 3.925-3.879 2.169 0 3.926 1.737 3.926 3.879s-1.757 3.878-3.925 3.878c-2.169 0-3.926-1.736-3.926-3.878z" fill="#6B83DA"/></symbol><symbol id="sprite-certificate"><path d="M51.792 17.678H14.209a.968.968 0 100 1.935h37.583a.967.967 0 100-1.935zm0 10.535H14.209a.967.967 0 100 1.936h37.583a.967.967 0 100-1.936zM39.47 35.05H26.53a.968.968 0 100 1.936h12.94a.968.968 0 100-1.935zm12.322-12.126H23.758a.968.968 0 100 1.936h28.034a.967.967 0 100-1.936zm-32.536 0H14.21a.967.967 0 100 1.936h5.047a.968.968 0 000-1.936z" fill="#6B83DA"/><path d="M61.005 16.043a1.19 1.19 0 00-.84-.343h-.001a3.65 3.65 0 01-3.655-3.49 1.189 1.189 0 00-1.19-1.135H10.45c-.639 0-1.162.498-1.19 1.135a3.68 3.68 0 01-3.487 3.486 1.189 1.189 0 00-1.135 1.191v25.01c0 .64.498 1.163 1.135 1.192a3.68 3.68 0 013.486 3.487 1.189 1.189 0 001.191 1.135h28.563a.968.968 0 100-1.936H11.117a5.552 5.552 0 00-4.543-4.543v-23.68a5.552 5.552 0 004.543-4.542h43.536a5.58 5.58 0 004.773 4.577V34.02a.968.968 0 001.935 0V16.893c0-.322-.126-.624-.356-.85z" fill="#6B83DA"/><path d="M63.314 6.245H2.686A2.689 2.689 0 000 8.93v40.924a2.689 2.689 0 002.686 2.685h40.611l-1.437 3.013a1.147 1.147 0 001.22 1.63l2.676-.43 1.493 2.45a1.148 1.148 0 002.019-.102l2.594-5.437 2.594 5.436a1.149 1.149 0 002.02.104l1.492-2.451 2.677.43a1.147 1.147 0 001.22-1.629l-1.438-3.013h2.887A2.689 2.689 0 0066 49.855V8.93a2.689 2.689 0 00-2.686-2.686zM48.147 56.957l-1.013-1.662c-.244-.4-.7-.611-1.164-.537l-1.719.277 1.81-3.794a3.448 3.448 0 002.786 1.022 1.51 1.51 0 011.019.273c.097.069.198.13.3.188l-2.02 4.233zm3.946-5.737l-.01.001a1.515 1.515 0 01-.442 0l-.01-.001a1.508 1.508 0 01-.645-.261 3.447 3.447 0 00-2.321-.623 1.51 1.51 0 01-1.517-.875c-.118-.26-.27-.5-.446-.719l-.024-.032-.029-.036a3.443 3.443 0 00-1.2-.913 1.512 1.512 0 01-.876-1.516 3.447 3.447 0 00-.622-2.322 1.512 1.512 0 010-1.75c.48-.675.7-1.499.622-2.322-.06-.64.292-1.25.876-1.517a3.447 3.447 0 001.7-1.7 1.513 1.513 0 011.516-.875 3.447 3.447 0 002.322-.622 1.512 1.512 0 011.75 0c.675.48 1.498.7 2.322.622.64-.06 1.25.291 1.517.876a3.446 3.446 0 001.7 1.7c.584.267.936.876.875 1.516a3.446 3.446 0 00.622 2.321 1.512 1.512 0 010 1.751 3.449 3.449 0 00-.622 2.322c.06.64-.291 1.249-.876 1.517a3.447 3.447 0 00-1.201.914l-.025.03c-.01.013-.02.025-.028.038a3.427 3.427 0 00-.445.717 1.512 1.512 0 01-1.517.876 3.452 3.452 0 00-2.321.621c-.196.14-.417.227-.645.262zm5.661 3.538a1.145 1.145 0 00-1.163.537l-1.013 1.662-2.02-4.233a3.26 3.26 0 00.3-.188 1.51 1.51 0 011.019-.273 3.447 3.447 0 002.786-1.022l1.81 3.794-1.719-.277zm6.311-4.903a.75.75 0 01-.75.75h-3.812l-.498-1.045c.025-.013.05-.027.076-.039a3.45 3.45 0 001.996-3.459c-.034-.36.063-.722.273-1.018a3.449 3.449 0 000-3.993 1.511 1.511 0 01-.273-1.018 3.45 3.45 0 00-1.996-3.459 1.512 1.512 0 01-.746-.745 3.45 3.45 0 00-3.458-1.996 1.51 1.51 0 01-1.018-.273 3.449 3.449 0 00-3.994 0 1.51 1.51 0 01-1.018.272 3.449 3.449 0 00-3.458 1.997c-.151.33-.416.594-.745.745a3.45 3.45 0 00-1.997 3.459c.034.36-.063.722-.273 1.018a3.449 3.449 0 000 3.993c.21.296.307.657.273 1.018a3.45 3.45 0 001.997 3.459c.026.012.05.026.076.039l-.5 1.045H2.687a.752.752 0 01-.751-.75V8.93c0-.414.337-.751.75-.751h60.63c.413 0 .75.337.75.75v40.925z" fill="#6B83DA"/><path d="M51.792 37.036a6.018 6.018 0 00-6.012 6.012 6.018 6.018 0 006.012 6.011 6.018 6.018 0 006.01-6.011 6.018 6.018 0 00-6.01-6.012zm0 10.088a4.081 4.081 0 01-4.077-4.077 4.081 4.081 0 014.077-4.076 4.08 4.08 0 014.076 4.077 4.081 4.081 0 01-4.076 4.076z" fill="#6B83DA"/></symbol><symbol id="sprite-clients"><path fill="#163993" d="M35.46 12.697c1.2-.935 1.995-2.49 1.995-4.244 0-2.869-2.093-5.189-4.681-5.189s-4.68 2.32-4.68 5.189c0 1.753.786 3.309 1.995 4.244a7.976 7.976 0 00-2.766 1.799 10.232 10.232 0 00-3.797-2.293c1.712-1.151 2.864-3.247 2.864-5.63C26.39 2.94 23.737 0 20.46 0c-3.278 0-5.93 2.95-5.93 6.573 0 2.383 1.143 4.479 2.863 5.63a10.317 10.317 0 00-3.756 2.266 8.031 8.031 0 00-2.734-1.763c1.2-.935 1.996-2.49 1.996-4.244 0-2.869-2.093-5.189-4.681-5.189s-4.681 2.32-4.681 5.189c0 1.753.787 3.309 1.996 4.244C2.312 13.938 0 17.328 0 21.312v.593c0 .018.016.036.032.036h9.922c-.057.495-.09 1.007-.09 1.52v.611c0 2.644 1.931 4.784 4.316 4.784h12.575c2.385 0 4.315-2.14 4.315-4.784v-.611c0-.513-.032-1.025-.089-1.52h9.987c.016 0 .032-.018.032-.036v-.593c-.016-3.993-2.32-7.383-5.54-8.615zm-6.07-4.253c0-2.068 1.517-3.75 3.383-3.75s3.383 1.682 3.383 3.75c0 2.041-1.485 3.705-3.318 3.75h-.13c-1.841-.036-3.318-1.7-3.318-3.75zm-13.58-1.87c0-2.833 2.077-5.135 4.632-5.135 2.556 0 4.632 2.302 4.632 5.134 0 2.734-1.938 4.973-4.364 5.126h-.536c-2.425-.153-4.364-2.392-4.364-5.126zm-11 1.87c0-2.068 1.517-3.75 3.383-3.75 1.865 0 3.382 1.682 3.382 3.75 0 2.041-1.484 3.705-3.318 3.75H8.13c-1.834-.036-3.318-1.7-3.318-3.75zm5.37 12.05H1.314c.365-3.831 3.286-6.835 6.83-6.862h.098c1.688.01 3.229.702 4.421 1.826a12.234 12.234 0 00-2.482 5.035zm19.575 3.578c0 1.844-1.355 3.346-3.018 3.346H14.164c-1.663 0-3.018-1.502-3.018-3.346v-.611c0-5.584 4.024-10.152 9.03-10.314.089.009.186.009.275.009.09 0 .187 0 .276-.01 5.006.163 9.03 4.73 9.03 10.315v.611zm.966-3.579a12.205 12.205 0 00-2.458-5c1.2-1.15 2.758-1.843 4.461-1.86h.098c3.545.026 6.465 3.03 6.83 6.86h-8.931z"/></symbol><symbol id="sprite-clock"><path fill="none" d="M8 3v4.586a1 1 0 00.293.707L11 11m4-3A7 7 0 111 8a7 7 0 0114 0z" stroke="#6B83DA" stroke-width="1.5"/></symbol><symbol id="sprite-drive"><g clip-path="url(#clip0)" fill="#6B83DA"><path d="M14.335 47.587c-3.8 0-6.89 3.091-6.89 6.89 0 3.8 3.09 6.89 6.89 6.89a6.897 6.897 0 006.889-6.89c0-3.799-3.09-6.89-6.89-6.89zm0 11.82a4.935 4.935 0 01-4.93-4.93 4.935 4.935 0 014.93-4.93 4.935 4.935 0 014.929 4.93 4.935 4.935 0 01-4.93 4.93z"/><path d="M65.934 32.836L61.496 21.33a7.056 7.056 0 00-6.544-4.49H37.758a.98.98 0 00-.98.98v22.485h-2.085V14.766a.98.98 0 00-.98-.98h-2.168a5.593 5.593 0 001.358-3.657 5.623 5.623 0 00-5.617-5.617 5.623 5.623 0 00-5.617 5.617v.852a4.618 4.618 0 00-2.68-.856c-.998 0-1.923.318-2.68.856v-.852a5.623 5.623 0 00-5.618-5.617 5.623 5.623 0 00-5.617 5.617 5.59 5.59 0 001.359 3.656H4.265a.98.98 0 00-.98.98v25.54H.98a.98.98 0 00-.98.98v13.193c0 .54.439.98.98.98h3.634a.98.98 0 00.98-.98c0-4.82 3.92-8.742 8.74-8.742s8.741 3.922 8.741 8.742c0 .54.439.98.98.98H41.47a.98.98 0 00.98-.98c0-4.82 3.922-8.742 8.74-8.742a8.67 8.67 0 015.173 1.695.98.98 0 101.161-1.58 10.617 10.617 0 00-6.333-2.075c-5.57 0-10.16 4.278-10.657 9.721h-1.795V18.8h16.214c2.074 0 3.969 1.3 4.715 3.235L64.04 33.37v20.126h-2.193a10.61 10.61 0 00-1.944-5.233.98.98 0 00-1.595 1.14 8.679 8.679 0 011.622 5.073c0 .541.44.98.98.98h4.11a.98.98 0 00.98-.98V33.188c0-.12-.022-.24-.066-.352zM23.63 23.392h9.103v16.913H23.63V23.392zm9.103-1.96H23.63v-5.686h9.103v5.686zM23.63 10.129a3.661 3.661 0 013.656-3.657 3.661 3.661 0 013.657 3.657 3.661 3.661 0 01-3.657 3.656H23.63V10.13zm-4.641 1.956c1.132 0 2.1.706 2.492 1.7h-4.985a2.683 2.683 0 012.493-1.7zM7.034 10.129a3.661 3.661 0 013.657-3.657 3.661 3.661 0 013.657 3.657v3.656H10.69a3.661 3.661 0 01-3.657-3.656zm7.314 5.617v5.686H5.245v-5.686h9.103zm-9.103 7.646h9.103v5.288a.98.98 0 101.96 0V15.746h5.361v24.559h-5.36V32.05a.98.98 0 10-1.961 0v8.254H5.245V23.392zm9.09 20.384c-5.57 0-10.16 4.278-10.657 9.721H1.96V42.265h34.818v11.232H24.99c-.496-5.443-5.086-9.72-10.656-9.72z"/><path d="M61.494 33.744a.98.98 0 00.106-.908l-3.877-10.05a2.99 2.99 0 00-2.771-1.902H41.803a.98.98 0 00-.98.98V33.19c0 .542.439.98.98.98h18.883a.98.98 0 00.808-.425zm-18.711-1.535v-9.365h12.169c.414 0 .793.26.942.647l3.363 8.718H42.783zm8.407 15.378c-3.8 0-6.89 3.091-6.89 6.89 0 3.8 3.09 6.89 6.89 6.89s6.89-3.09 6.89-6.89c0-3.799-3.09-6.89-6.89-6.89zm0 11.82a4.935 4.935 0 01-4.93-4.93 4.935 4.935 0 014.93-4.93 4.935 4.935 0 014.93 4.93 4.936 4.936 0 01-4.93 4.93z"/></g></symbol><symbol id="sprite-locator"><path fill="none" d="M11 6c0 2.761-5 10-5 10S1 8.761 1 6a5 5 0 0110 0z" stroke="#6B83DA" stroke-width="1.5"/></symbol><symbol id="sprite-logo-icon"><mask id="a" fill="#fff"><path fill-rule="evenodd" clip-rule="evenodd" d="M23.692 12.5A8.088 8.088 0 0012.5 1.308 8.088 8.088 0 001.308 12.5 8.088 8.088 0 0012.5 23.692 8.088 8.088 0 0023.692 12.5z"/></mask><path d="M23.692 12.5l-1.256-.82-.535.82.535.82 1.256-.82zM12.5 1.308l-.82 1.257.82.534.82-.534-.82-1.257zM1.308 12.5l1.257.82.534-.82-.534-.82-1.257.82zM12.5 23.692l.82-1.257-.82-.534-.82.534.82 1.257zm11-15.604a6.55 6.55 0 01-1.064 3.593l2.512 1.638A9.55 9.55 0 0026.5 8.09h-3zM16.912 1.5A6.588 6.588 0 0123.5 8.088h3A9.588 9.588 0 0016.912-1.5v3zm-3.593 1.065A6.55 6.55 0 0116.912 1.5v-3A9.55 9.55 0 0011.68.052l1.638 2.513zM8.09 1.5a6.55 6.55 0 013.592 1.065L13.319.052A9.55 9.55 0 008.09-1.5v3zM1.5 8.088A6.588 6.588 0 018.088 1.5v-3A9.588 9.588 0 00-1.5 8.088h3zm1.065 3.593A6.55 6.55 0 011.5 8.088h-3A9.55 9.55 0 00.051 13.32l2.514-1.638zM1.5 16.91a6.55 6.55 0 011.065-3.592L.05 11.681A9.55 9.55 0 00-1.5 16.91h3zm6.588 6.59A6.588 6.588 0 011.5 16.912h-3A9.588 9.588 0 008.088 26.5v-3zm3.593-1.065A6.55 6.55 0 018.088 23.5v3a9.55 9.55 0 005.231-1.552l-1.638-2.513zm5.23 1.065a6.55 6.55 0 01-3.592-1.065l-1.638 2.513a9.55 9.55 0 005.23 1.552v-3zm6.589-6.588a6.588 6.588 0 01-6.588 6.588v3a9.588 9.588 0 009.588-9.588h-3zm-1.064-3.593a6.55 6.55 0 011.064 3.593h3a9.55 9.55 0 00-1.552-5.231l-2.512 1.638z" fill="#9FB4FF" mask="url(#a)"/></symbol><symbol id="sprite-logo-text"><path d="M3.983 10.114c1.207 0 2.003-.739 2.145-1.705H5.29c-.156.597-.654.952-1.307.952-.994 0-1.634-.824-1.634-2.088 0-1.236.654-2.046 1.634-2.046.739 0 1.179.455 1.307.952h.838c-.142-1.023-1.009-1.705-2.16-1.705-1.477 0-2.457 1.165-2.457 2.827 0 1.634.938 2.813 2.472 2.813zm2.988 1.448h.838V10h4.034v1.563h.838V9.219h-.838V4.545H8.377l-.185 2.16c-.131 1.527-.327 2.052-.767 2.514h-.454v2.344zM8.377 9.22c.383-.505.522-1.375.639-2.514l.142-1.378h1.847V9.22H8.377zm7.903.895c1.108 0 1.918-.554 2.173-1.378l-.81-.227c-.212.568-.706.852-1.363.852-.984 0-1.662-.636-1.7-1.804h3.959v-.355c0-2.032-1.208-2.728-2.344-2.728-1.477 0-2.457 1.165-2.457 2.841 0 1.676.965 2.799 2.542 2.799zm-1.7-3.282c.056-.848.656-1.605 1.615-1.605.909 0 1.491.682 1.491 1.605H14.58zM19.53 10h.285c1.207 0 1.555-.938 1.633-2.727l.085-1.946h2.003V10h.838V4.545h-3.636l-.1 2.415c-.07 1.833-.255 2.259-.909 2.259h-.198V10zm8.187.128c.952 0 1.449-.512 1.62-.867h.042V10h.838V6.406c0-1.733-1.32-1.932-2.017-1.932-.824 0-1.761.285-2.188 1.279l.796.284c.185-.398.621-.824 1.42-.824.771 0 1.151.408 1.151 1.108v.028c0 .405-.412.37-1.406.498-1.012.131-2.117.355-2.117 1.605 0 1.065.824 1.676 1.861 1.676zm.128-.753c-.668 0-1.15-.298-1.15-.88 0-.64.582-.839 1.235-.924.355-.043 1.307-.142 1.449-.312v.767c0 .681-.54 1.349-1.534 1.349zm4.94-4.83h-.838V10h.838V7.67h2.613V10h.838V4.545h-.838V6.89h-2.613V4.545zm7.398 5.569c1.477 0 2.471-1.123 2.471-2.813 0-1.704-.994-2.827-2.471-2.827s-2.472 1.123-2.472 2.827c0 1.69.995 2.813 2.472 2.813zm0-.753c-1.122 0-1.634-.966-1.634-2.06s.512-2.074 1.634-2.074c1.122 0 1.633.98 1.633 2.074 0 1.094-.51 2.06-1.633 2.06zm6.381 2.201h.838V10h4.034v1.563h.838V9.219h-.838V4.545H47.97l-.184 2.16c-.132 1.527-.327 2.052-.767 2.514h-.455v2.344zM47.97 9.22c.384-.505.522-1.375.64-2.514l.142-1.378h1.846V9.22H47.97zm5.134.781h.284c1.207 0 1.555-.938 1.633-2.727l.085-1.946h2.003V10h.838V4.545h-3.636l-.1 2.415c-.07 1.833-.255 2.259-.908 2.259h-.2V10zm9.862 0h.796V4.545h-2.245c-1.175 0-1.889.615-1.889 1.62 0 .75.377 1.282 1.034 1.505L59.33 10h.909l1.264-2.216h1.463V10zm0-2.997h-1.548c-.593 0-.952-.316-.952-.838 0-.53.398-.853 1.051-.853h1.45v1.69zM68.513 10h.838V5.327h2.614V10h.837V4.545h-4.29V10zm6.02 2.046h.838V9.162h.071c.185.298.54.952 1.591.952 1.364 0 2.315-1.094 2.315-2.827 0-1.719-.951-2.813-2.33-2.813-1.064 0-1.391.654-1.576.938h-.1v-.867h-.809v7.5zm.824-4.773c0-1.222.54-2.046 1.562-2.046 1.066 0 1.591.895 1.591 2.046 0 1.165-.54 2.088-1.59 2.088-1.01 0-1.563-.852-1.563-2.088zm7.686 2.84c1.477 0 2.471-1.122 2.471-2.812 0-1.704-.994-2.827-2.471-2.827-1.478 0-2.472 1.123-2.472 2.827 0 1.69.995 2.813 2.472 2.813zm0-.752c-1.122 0-1.634-.966-1.634-2.06s.512-2.074 1.634-2.074c1.122 0 1.633.98 1.633 2.074 0 1.094-.511 2.06-1.633 2.06zm3.368 2.201h.838V10h4.034v1.563h.838V9.219h-.838V4.545h-3.466l-.184 2.16c-.132 1.527-.327 2.052-.767 2.514h-.455v2.344zm1.406-2.343c.384-.505.523-1.375.64-2.514l.142-1.378h1.846v3.892h-2.627zm5.617.781h2.57c1.109 0 1.776-.625 1.776-1.463 0-.856-.65-1.318-1.25-1.406.615-.128 1.052-.473 1.052-1.137 0-.87-.746-1.449-1.918-1.449h-2.23V10zm.795-.767V7.557h1.776c.575 0 .923.344.923.909 0 .476-.348.767-.923.767h-1.776zm0-2.4v-1.52h1.435c.671 0 1.08.28 1.08.738 0 .487-.409.781-1.08.781h-1.435zm5.858 1.931V4.545h-.838V10h.98l2.614-4.219V10h.838V4.545h-.966l-2.628 4.22zM105.075 10h1.008l1.861-2.344h.426V10h.838V7.656h.427L111.481 10h1.009l-2.202-2.77 2.173-2.685h-.994l-1.818 2.33h-.441v-2.33h-.838v2.33h-.454l-1.818-2.33h-.995l2.188 2.685-2.216 2.77zm10.875.114c1.108 0 1.917-.554 2.173-1.378l-.81-.227c-.213.568-.706.852-1.363.852-.984 0-1.662-.636-1.701-1.804h3.959v-.355c0-2.032-1.207-2.728-2.344-2.728-1.477 0-2.457 1.165-2.457 2.841 0 1.676.966 2.799 2.543 2.799zm-1.701-3.282c.057-.848.657-1.605 1.615-1.605.91 0 1.492.682 1.492 1.605h-3.107zm6.272-2.287h-.838V10h.838V7.67h2.614V10h.838V4.545h-.838V6.89h-2.614V4.545zm6.02 4.22v-4.22h-.838V10h.98l2.614-4.219V10h.838V4.545h-.966l-2.628 4.22zm8.61 1.235h.796V4.545h-2.244c-1.176 0-1.89.615-1.89 1.62 0 .75.377 1.282 1.034 1.505L131.515 10h.909l1.264-2.216h1.463V10zm0-2.997h-1.548c-.593 0-.952-.316-.952-.838 0-.53.398-.853 1.052-.853h1.448v1.69z" fill="#9FB4FF"/><path d="M5.36 30c3.768 0 5.947-2.336 5.947-6.2 0-3.846-2.18-6.164-5.82-6.164H1.359V30h4.003zm-2.136-1.63v-9.104h2.149c2.704 0 4.099 1.618 4.099 4.534 0 2.928-1.395 4.57-4.214 4.57H3.224zM16.13 30l1.135-3.272h4.83L23.224 30h1.98l-4.45-12.364H18.6L14.15 30h1.98zm1.678-4.842l1.824-5.276h.096l1.823 5.276H17.81zm21.2-7.522h-1.847v9.08h-.115l-6.29-9.08h-1.727V30h1.866v-9.067h.114L37.294 30h1.714V17.636zm15.03 4.021c-.422-2.644-2.493-4.19-5.107-4.19-3.2 0-5.56 2.397-5.56 6.351s2.348 6.351 5.56 6.351c2.717 0 4.703-1.702 5.107-4.147l-1.883-.006c-.32 1.581-1.648 2.45-3.212 2.45-2.119 0-3.719-1.623-3.719-4.648 0-3 1.594-4.648 3.725-4.648 1.576 0 2.898.887 3.206 2.487h1.883zM58.31 30h7.824v-1.606h-5.958V24.61h5.481v-1.6h-5.481v-3.767h5.886v-1.606H58.31V30zm22.552-8.343c-.422-2.644-2.493-4.19-5.107-4.19-3.2 0-5.56 2.397-5.56 6.351s2.348 6.351 5.56 6.351c2.717 0 4.703-1.702 5.107-4.147l-1.883-.006c-.32 1.581-1.648 2.45-3.212 2.45-2.119 0-3.719-1.623-3.719-4.648 0-3 1.594-4.648 3.725-4.648 1.576 0 2.898.887 3.206 2.487h1.883zm15.012 2.161c0-3.954-2.366-6.35-5.566-6.35-3.212 0-5.572 2.396-5.572 6.35 0 3.948 2.36 6.351 5.572 6.351 3.2 0 5.566-2.397 5.566-6.35zm-1.847 0c0 3.013-1.594 4.649-3.719 4.649-2.13 0-3.719-1.636-3.719-4.649 0-3.012 1.588-4.648 3.72-4.648 2.124 0 3.718 1.636 3.718 4.648zM100.24 30h7.468v-1.606h-5.603V17.636h-1.865V30zm21.894-6.182c0-3.954-2.367-6.35-5.566-6.35-3.212 0-5.572 2.396-5.572 6.35 0 3.948 2.36 6.351 5.572 6.351 3.199 0 5.566-2.397 5.566-6.35zm-1.847 0c0 3.013-1.594 4.649-3.719 4.649-2.131 0-3.719-1.636-3.719-4.649 0-3.012 1.588-4.648 3.719-4.648 2.125 0 3.719 1.636 3.719 4.648zM126.5 30h1.865v-4.679h2.656L133.533 30h2.125l-2.741-5.005c1.515-.561 2.27-1.823 2.27-3.483 0-2.276-1.413-3.876-4.28-3.876H126.5V30zm1.865-6.284v-4.48h2.342c1.842 0 2.602.875 2.602 2.276 0 1.395-.76 2.204-2.578 2.204h-2.366z" fill="#fff"/></symbol><symbol id="sprite-paint"><path fill="#163993" d="M28.583 4.35h-2.92C24.411 1.756 22.62.274 20.708.274c-1.921 0-3.72 1.498-4.974 4.118-3.258.413-5.817 4.152-5.817 8.694a10.477 10.477 0 001.775 6.02 8.949 8.949 0 00-1.442 3c-.134.517-.233 1.045-.333 1.556-.116.617-.233 1.206-.402 1.775-4.8.427-9.515 2.06-9.515 4.83 0 2.823 5.266 4.95 12.25 4.95s12.25-2.127 12.25-4.95c0-2.429-3.979-4.386-9.742-4.845.055-.395.128-.794.201-1.187l.05-.27c.135-.75.327-1.488.576-2.207.248.04.498.063.748.065h12.25c3.538 0 6.417-3.92 6.417-8.737S32.121 4.35 28.583 4.35zm-7.875-2.912c1.33 0 2.631 1.049 3.647 2.912h-7.292c1.015-1.863 2.315-2.912 3.645-2.912zm-4.375 4.077c2.895 0 5.25 3.397 5.25 7.571 0 4.175-2.355 7.572-5.25 7.572-.093 0-.186-.004-.28-.011l.038-.074a3.597 3.597 0 011.534-1.433 4.06 4.06 0 001.109-.932.603.603 0 00.053-.058c.104-.124.203-.255.297-.39a7.734 7.734 0 001.257-3.509v-.009c.051-.383.076-.77.076-1.156 0-3.832-2.111-6.406-4.084-6.406-1.972 0-4.083 2.574-4.083 6.406a8.465 8.465 0 001.054 4.234l-.195.179-.157.15c-.142.138-.278.277-.409.418-.029.031-.061.058-.09.092a9.625 9.625 0 01-1.37-5.072c0-4.175 2.355-7.572 5.25-7.572zM14.23 16.581a7.398 7.398 0 01-.813-3.495c0-3.247 1.698-5.241 2.916-5.241s2.917 1.994 2.917 5.241c0 .342-.021.684-.066 1.023-.014.122-.044.236-.063.355a52.75 52.75 0 01-.56.186 15.914 15.914 0 00-4.331 1.93zm9.103 13.686c0 1.79-4.55 3.786-11.083 3.786S1.167 32.058 1.167 30.267c0-1.405 2.92-3.075 7.864-3.615-.037.067-.068.138-.107.203a2.541 2.541 0 01-2.445 1.377.577.577 0 00-.642.518.583.583 0 00.518.64c.13.014.26.021.39.021a3.676 3.676 0 003.184-1.963c.238-.404.432-.832.58-1.277v-.004c.238-.748.423-1.511.553-2.285.098-.514.19-1 .316-1.48a7.868 7.868 0 011.485-2.93c.466-.583.993-1.115 1.57-1.588a13.19 13.19 0 014.35-2.081c-.013.034-.02.073-.034.107-.013.034-.032.066-.047.102a5.935 5.935 0 01-.317.676c-.055.097-.123.179-.183.27-.088.137-.175.28-.27.402l-.007.006-.007.008a.517.517 0 00-.034.035 2.96 2.96 0 01-.825.712 4.706 4.706 0 00-2.003 1.915 9.625 9.625 0 00-.383.833 14.734 14.734 0 00-.808 2.884l-.05.267a8.646 8.646 0 00-.128 3.862 2.961 2.961 0 001.88 2.064.584.584 0 00.368-1.107 1.822 1.822 0 01-1.123-1.266 4.015 4.015 0 01-.13-.99c5.356.433 8.651 2.213 8.651 3.684zm5.25-9.61h-9.062c1.926-1.508 3.229-4.334 3.229-7.57 0-3.237-1.303-6.063-3.23-7.572h5.384a18.618 18.618 0 011.294 5.948 1.753 1.753 0 00.678 3.39 1.754 1.754 0 00.488-3.423 20.233 20.233 0 00-1.2-5.915h2.42c2.894 0 5.25 3.397 5.25 7.571 0 4.175-2.356 7.572-5.25 7.572zm-1.75-8.153a.583.583 0 11.001 1.166.583.583 0 010-1.166z"/></symbol><symbol id="sprite-photo"><path d="M41.637 54.773c-.293 0-.58.12-.787.327a1.122 1.122 0 00-.327.787c0 .292.12.58.327.787.207.207.494.326.787.326.292 0 .58-.12.787-.326.207-.207.326-.495.326-.787 0-.293-.12-.58-.326-.787a1.122 1.122 0 00-.787-.327z" fill="#6B83DA"/><path d="M52.324 0H4.676A4.68 4.68 0 000 4.676v47.648A4.68 4.68 0 004.676 57h32.508a1.113 1.113 0 100-2.227H4.676a2.452 2.452 0 01-2.45-2.449V4.676c0-1.35 1.1-2.45 2.45-2.45h47.648c1.35 0 2.45 1.1 2.45 2.45v47.648c0 1.35-1.1 2.45-2.45 2.45H46.09a1.113 1.113 0 100 2.226h6.234A4.68 4.68 0 0057 52.324V4.676A4.68 4.68 0 0052.324 0z" fill="#6B83DA"/><path d="M10.91 7.57a1.113 1.113 0 100-2.226H6.457c-.615 0-1.113.498-1.113 1.113v38.297c0 .615.498 1.113 1.113 1.113h44.086c.615 0 1.113-.498 1.113-1.113V6.457c0-.615-.498-1.113-1.113-1.113H19.816a1.113 1.113 0 100 2.226H49.43v28.066a10.41 10.41 0 00-5.356-3.58 6.54 6.54 0 002.009-4.719v-.727a6.569 6.569 0 00-6.561-6.56 6.569 6.569 0 00-6.562 6.56v.727c0 1.851.772 3.524 2.01 4.719a10.43 10.43 0 00-6.47 5.324 10.43 10.43 0 00-6.47-5.325 6.54 6.54 0 002.01-4.718v-.727a6.569 6.569 0 00-6.561-6.56 6.569 6.569 0 00-6.562 6.56v.727c0 1.851.772 3.524 2.01 4.719a10.41 10.41 0 00-5.357 3.58V7.57h3.34zm24.277 19.04a4.34 4.34 0 014.335-4.334 4.34 4.34 0 014.334 4.334v.727a4.34 4.34 0 01-4.334 4.335 4.34 4.34 0 01-4.335-4.335v-.727zm2.582 7.288h3.505c4.497 0 8.156 3.659 8.156 8.155v1.588H29.613v-1.588c0-4.496 3.659-8.155 8.156-8.155zM13.144 26.61a4.34 4.34 0 014.335-4.334 4.34 4.34 0 014.334 4.334v.727a4.34 4.34 0 01-4.334 4.335 4.34 4.34 0 01-4.335-4.335v-.727zm2.582 7.288h3.505c4.497 0 8.156 3.659 8.156 8.155v1.588H7.57v-1.588c0-4.496 3.659-8.155 8.155-8.155z" fill="#6B83DA"/><path d="M16.15 7.244c.207-.207.327-.494.327-.787 0-.293-.12-.58-.327-.787a1.122 1.122 0 00-.787-.326c-.292 0-.58.119-.787.326a1.122 1.122 0 00-.326.787c0 .293.12.58.326.787.207.207.495.326.787.326.293 0 .58-.119.787-.326zm8.914 12.108a26.829 26.829 0 002.81 2.255 1.108 1.108 0 001.252 0c.058-.04 1.425-.973 2.81-2.255 2.044-1.89 3.038-3.506 3.038-4.939 0-2.487-1.893-4.51-4.218-4.51a4.03 4.03 0 00-2.256.699 4.032 4.032 0 00-2.256-.7c-2.325 0-4.218 2.024-4.218 4.511 0 1.433.994 3.049 3.038 4.94zm1.18-7.223c.534 0 1.036.24 1.414.678a1.113 1.113 0 001.684 0c.378-.437.88-.678 1.414-.678 1.098 0 1.991 1.025 1.991 2.284 0 1.246-2.346 3.492-4.247 4.906-1.902-1.412-4.247-3.657-4.247-4.906 0-1.26.893-2.284 1.991-2.284z" fill="#6B83DA"/></symbol><symbol id="sprite-soc-fb"><path fill="none" d="M12.014 21H16a5 5 0 005-5V6a5 5 0 00-5-5H6a5 5 0 00-5 5v10a5 5 0 005 5h6.014zm0 0V9.014a2 2 0 012-2h2.054m-7.082 4.932h7.082" stroke="#FFB932" stroke-width="1.5"/></symbol><symbol id="sprite-soc-inst"><path fill="none" d="M1 6a5 5 0 015-5h10a5 5 0 015 5v10a5 5 0 01-5 5H6a5 5 0 01-5-5V6z" stroke="#FFB932" stroke-width="1.5"/><circle fill="none" cx="11" cy="11" r="5" stroke="#FFB932" stroke-width="1.5"/><circle fill="#FFB932" cx="17" cy="5" r="1"/></symbol><symbol id="sprite-soc-vk"><path fill="none" clip-rule="evenodd" d="M22.495 1.813c.153-.469 0-.813-.728-.813H19.36c-.611 0-.894.297-1.047.625 0 0-1.223 2.74-2.957 4.52-.561.515-.816.68-1.122.68-.153 0-.383-.165-.383-.633v-4.38c0-.562-.17-.812-.68-.812H9.39c-.382 0-.612.26-.612.508 0 .533.867.656.956 2.155v3.255c0 .714-.14.843-.446.843-.816 0-2.8-2.752-3.978-5.902C5.08 1.247 4.847 1 4.232 1H1.825C1.138 1 1 1.297 1 1.625c0 .586.816 3.49 3.8 7.33C6.787 11.578 9.59 13 12.14 13c1.53 0 1.72-.316 1.72-.86v-1.982c0-.632.144-.758.629-.758.357 0 .969.164 2.396 1.429C18.518 12.328 18.787 13 19.706 13h2.406c.688 0 1.032-.316.833-.939-.217-.621-.996-1.522-2.03-2.59-.56-.61-1.402-1.265-1.657-1.593-.357-.421-.255-.609 0-.984 0 0 2.932-3.793 3.238-5.081z" stroke="#FFB932" stroke-width="1.5" stroke-linecap="square" stroke-linejoin="round"/></symbol><symbol id="sprite-tel"><path fill="none" d="M5.039 11.159a14.018 14.018 0 005.873 3.684c1.791.498 3.185-.298 3.483-.896a8.267 8.267 0 00.598-2.091c.199-1.095-3.783-2.689-4.38-1.593-.2.299-.299 1.195-1.294.597a41.441 41.441 0 01-4.18-4.182c-.499-.996.298-1.095.596-1.295.996-.498-.497-4.48-1.592-4.381-.299 0-1.692.498-2.09.597-.598.3-1.394 1.693-.896 3.486.895 2.29 2.19 4.282 3.882 6.074z" stroke="#6B83DA" stroke-width="1.5"/></symbol></svg>