<svg width="24" height="14" xmlns="http://www.w3.org/2000/svg"><path fill="none" clip-rule="evenodd" d="M22.495 1.813c.153-.469 0-.813-.728-.813H19.36c-.611 0-.894.297-1.047.625 0 0-1.223 2.74-2.957 4.52-.561.515-.816.68-1.122.68-.153 0-.383-.165-.383-.633v-4.38c0-.562-.17-.812-.68-.812H9.39c-.382 0-.612.26-.612.508 0 .533.867.656.956 2.155v3.255c0 .714-.14.843-.446.843-.816 0-2.8-2.752-3.978-5.902C5.08 1.247 4.847 1 4.232 1H1.825C1.138 1 1 1.297 1 1.625c0 .586.816 3.49 3.8 7.33C6.787 11.578 9.59 13 12.14 13c1.53 0 1.72-.316 1.72-.86v-1.982c0-.632.144-.758.629-.758.357 0 .969.164 2.396 1.429C18.518 12.328 18.787 13 19.706 13h2.406c.688 0 1.032-.316.833-.939-.217-.621-.996-1.522-2.03-2.59-.56-.61-1.402-1.265-1.657-1.593-.357-.421-.255-.609 0-.984 0 0 2.932-3.793 3.238-5.081z" stroke="#FFB932" stroke-width="1.5" stroke-linecap="square" stroke-linejoin="round"/></svg>