<svg width="34" height="34" xmlns="http://www.w3.org/2000/svg"><path fill="#163993" d="M1.012 18.712l2.343 2.343a.625.625 0 00.01.01l2.808 2.807.01.01L8.99 26.69l.01.01 2.807 2.808.01.01 2.343 2.343a.664.664 0 00.94 0l7.512-7.512.94-.94a3.325 3.325 0 000-4.695l-1.88-1.879a.66.66 0 010-.939l.927-.926 8.045-7.205a3.989 3.989 0 00.19-5.813A3.958 3.958 0 0028.018.784a3.957 3.957 0 00-3 1.36v.001l-.001.001-7.115 8.129-.924.924a.665.665 0 01-.939 0L14.16 9.321a3.297 3.297 0 00-2.348-.973c-.887 0-1.72.345-2.347.972l-.94.94-7.513 7.512a.666.666 0 000 .94zm25.003-15.69a2.638 2.638 0 012.002-.909c.711 0 1.378.276 1.879.777a2.659 2.659 0 01-.134 3.881l-.002.002-.003.002-7.59 6.798-2.873-2.873 6.721-7.678zm-15.611 7.239a1.978 1.978 0 011.408-.584c.532 0 1.032.207 1.408.584l1.879 1.878c.777.776 2.04.776 2.817 0l.47-.47 2.817 2.818-.47.469a1.98 1.98 0 00-.583 1.409c0 .532.207 1.032.584 1.408l1.878 1.879c.777.776.777 2.04 0 2.817l-.47.47L9.934 10.73l.47-.47zm-1.41 1.408l12.209 12.209-6.573 6.573-1.41-1.409 3.288-3.286a.664.664 0 10-.94-.94l-3.287 3.287-1.878-1.878 3.287-3.287a.664.664 0 10-.94-.939l-3.286 3.287-1.878-1.878 3.287-3.287a.664.664 0 10-.94-.939L6.648 22.47l-1.88-1.88 3.287-3.286a.664.664 0 10-.939-.94L3.83 19.651l-1.408-1.408 6.573-6.574z"/></svg>