<svg width="66" height="66" fill="none" xmlns="http://www.w3.org/2000/svg"><g clip-path="url(#clip0)" fill="#6B83DA"><path d="M14.335 47.587c-3.8 0-6.89 3.091-6.89 6.89 0 3.8 3.09 6.89 6.89 6.89a6.897 6.897 0 006.889-6.89c0-3.799-3.09-6.89-6.89-6.89zm0 11.82a4.935 4.935 0 01-4.93-4.93 4.935 4.935 0 014.93-4.93 4.935 4.935 0 014.929 4.93 4.935 4.935 0 01-4.93 4.93z"/><path d="M65.934 32.836L61.496 21.33a7.056 7.056 0 00-6.544-4.49H37.758a.98.98 0 00-.98.98v22.485h-2.085V14.766a.98.98 0 00-.98-.98h-2.168a5.593 5.593 0 001.358-3.657 5.623 5.623 0 00-5.617-5.617 5.623 5.623 0 00-5.617 5.617v.852a4.618 4.618 0 00-2.68-.856c-.998 0-1.923.318-2.68.856v-.852a5.623 5.623 0 00-5.618-5.617 5.623 5.623 0 00-5.617 5.617 5.59 5.59 0 001.359 3.656H4.265a.98.98 0 00-.98.98v25.54H.98a.98.98 0 00-.98.98v13.193c0 .54.439.98.98.98h3.634a.98.98 0 00.98-.98c0-4.82 3.92-8.742 8.74-8.742s8.741 3.922 8.741 8.742c0 .54.439.98.98.98H41.47a.98.98 0 00.98-.98c0-4.82 3.922-8.742 8.74-8.742a8.67 8.67 0 015.173 1.695.98.98 0 101.161-1.58 10.617 10.617 0 00-6.333-2.075c-5.57 0-10.16 4.278-10.657 9.721h-1.795V18.8h16.214c2.074 0 3.969 1.3 4.715 3.235L64.04 33.37v20.126h-2.193a10.61 10.61 0 00-1.944-5.233.98.98 0 00-1.595 1.14 8.679 8.679 0 011.622 5.073c0 .541.44.98.98.98h4.11a.98.98 0 00.98-.98V33.188c0-.12-.022-.24-.066-.352zM23.63 23.392h9.103v16.913H23.63V23.392zm9.103-1.96H23.63v-5.686h9.103v5.686zM23.63 10.129a3.661 3.661 0 013.656-3.657 3.661 3.661 0 013.657 3.657 3.661 3.661 0 01-3.657 3.656H23.63V10.13zm-4.641 1.956c1.132 0 2.1.706 2.492 1.7h-4.985a2.683 2.683 0 012.493-1.7zM7.034 10.129a3.661 3.661 0 013.657-3.657 3.661 3.661 0 013.657 3.657v3.656H10.69a3.661 3.661 0 01-3.657-3.656zm7.314 5.617v5.686H5.245v-5.686h9.103zm-9.103 7.646h9.103v5.288a.98.98 0 101.96 0V15.746h5.361v24.559h-5.36V32.05a.98.98 0 10-1.961 0v8.254H5.245V23.392zm9.09 20.384c-5.57 0-10.16 4.278-10.657 9.721H1.96V42.265h34.818v11.232H24.99c-.496-5.443-5.086-9.72-10.656-9.72z"/><path d="M61.494 33.744a.98.98 0 00.106-.908l-3.877-10.05a2.99 2.99 0 00-2.771-1.902H41.803a.98.98 0 00-.98.98V33.19c0 .542.439.98.98.98h18.883a.98.98 0 00.808-.425zm-18.711-1.535v-9.365h12.169c.414 0 .793.26.942.647l3.363 8.718H42.783zm8.407 15.378c-3.8 0-6.89 3.091-6.89 6.89 0 3.8 3.09 6.89 6.89 6.89s6.89-3.09 6.89-6.89c0-3.799-3.09-6.89-6.89-6.89zm0 11.82a4.935 4.935 0 01-4.93-4.93 4.935 4.935 0 014.93-4.93 4.935 4.935 0 014.93 4.93 4.936 4.936 0 01-4.93 4.93z"/></g><defs><clipPath id="clip0"><path fill="#fff" d="M0 0h66v66H0z"/></clipPath></defs></svg>