<svg width="35" height="36" fill="none" xmlns="http://www.w3.org/2000/svg"><path d="M28.583 4.35h-2.92C24.411 1.756 22.62.274 20.708.274c-1.921 0-3.72 1.498-4.974 4.118-3.258.413-5.817 4.152-5.817 8.694a10.477 10.477 0 001.775 6.02 8.949 8.949 0 00-1.442 3c-.134.517-.233 1.045-.333 1.556-.116.617-.233 1.206-.402 1.775-4.8.427-9.515 2.06-9.515 4.83 0 2.823 5.266 4.95 12.25 4.95s12.25-2.127 12.25-4.95c0-2.429-3.979-4.386-9.742-4.845.055-.395.128-.794.201-1.187l.05-.27c.135-.75.327-1.488.576-2.207.248.04.498.063.748.065h12.25c3.538 0 6.417-3.92 6.417-8.737S32.121 4.35 28.583 4.35zm-7.875-2.912c1.33 0 2.631 1.049 3.647 2.912h-7.292c1.015-1.863 2.315-2.912 3.645-2.912zm-4.375 4.077c2.895 0 5.25 3.397 5.25 7.571 0 4.175-2.355 7.572-5.25 7.572-.093 0-.186-.004-.28-.011l.038-.074a3.597 3.597 0 011.534-1.433 4.06 4.06 0 001.109-.932.603.603 0 00.053-.058c.104-.124.203-.255.297-.39a7.734 7.734 0 001.257-3.509v-.009c.051-.383.076-.77.076-1.156 0-3.832-2.111-6.406-4.084-6.406-1.972 0-4.083 2.574-4.083 6.406a8.465 8.465 0 001.054 4.234l-.195.179-.157.15c-.142.138-.278.277-.409.418-.029.031-.061.058-.09.092a9.625 9.625 0 01-1.37-5.072c0-4.175 2.355-7.572 5.25-7.572zM14.23 16.581a7.398 7.398 0 01-.813-3.495c0-3.247 1.698-5.241 2.916-5.241s2.917 1.994 2.917 5.241c0 .342-.021.684-.066 1.023-.014.122-.044.236-.063.355a52.75 52.75 0 01-.56.186 15.914 15.914 0 00-4.331 1.93zm9.103 13.686c0 1.79-4.55 3.786-11.083 3.786S1.167 32.058 1.167 30.267c0-1.405 2.92-3.075 7.864-3.615-.037.067-.068.138-.107.203a2.541 2.541 0 01-2.445 1.377.577.577 0 00-.642.518.583.583 0 00.518.64c.13.014.26.021.39.021a3.676 3.676 0 003.184-1.963c.238-.404.432-.832.58-1.277v-.004c.238-.748.423-1.511.553-2.285.098-.514.19-1 .316-1.48a7.868 7.868 0 011.485-2.93c.466-.583.993-1.115 1.57-1.588a13.19 13.19 0 014.35-2.081c-.013.034-.02.073-.034.107-.013.034-.032.066-.047.102a5.935 5.935 0 01-.317.676c-.055.097-.123.179-.183.27-.088.137-.175.28-.27.402l-.007.006-.007.008a.517.517 0 00-.034.035 2.96 2.96 0 01-.825.712 4.706 4.706 0 00-2.003 1.915 9.625 9.625 0 00-.383.833 14.734 14.734 0 00-.808 2.884l-.05.267a8.646 8.646 0 00-.128 3.862 2.961 2.961 0 001.88 2.064.584.584 0 00.368-1.107 1.822 1.822 0 01-1.123-1.266 4.015 4.015 0 01-.13-.99c5.356.433 8.651 2.213 8.651 3.684zm5.25-9.61h-9.062c1.926-1.508 3.229-4.334 3.229-7.57 0-3.237-1.303-6.063-3.23-7.572h5.384a18.618 18.618 0 011.294 5.948 1.753 1.753 0 00.678 3.39 1.754 1.754 0 00.488-3.423 20.233 20.233 0 00-1.2-5.915h2.42c2.894 0 5.25 3.397 5.25 7.571 0 4.175-2.356 7.572-5.25 7.572zm-1.75-8.153a.583.583 0 11.001 1.166.583.583 0 010-1.166z" fill="#163993"/></svg>