<svg width="139" height="33" fill="none" xmlns="http://www.w3.org/2000/svg"><path d="M3.983 10.114c1.207 0 2.003-.739 2.145-1.705H5.29c-.156.597-.654.952-1.307.952-.994 0-1.634-.824-1.634-2.088 0-1.236.654-2.046 1.634-2.046.739 0 1.179.455 1.307.952h.838c-.142-1.023-1.009-1.705-2.16-1.705-1.477 0-2.457 1.165-2.457 2.827 0 1.634.938 2.813 2.472 2.813zm2.988 1.448h.838V10h4.034v1.563h.838V9.219h-.838V4.545H8.377l-.185 2.16c-.131 1.527-.327 2.052-.767 2.514h-.454v2.344zM8.377 9.22c.383-.505.522-1.375.639-2.514l.142-1.378h1.847V9.22H8.377zm7.903.895c1.108 0 1.918-.554 2.173-1.378l-.81-.227c-.212.568-.706.852-1.363.852-.984 0-1.662-.636-1.7-1.804h3.959v-.355c0-2.032-1.208-2.728-2.344-2.728-1.477 0-2.457 1.165-2.457 2.841 0 1.676.965 2.799 2.542 2.799zm-1.7-3.282c.056-.848.656-1.605 1.615-1.605.909 0 1.491.682 1.491 1.605H14.58zM19.53 10h.285c1.207 0 1.555-.938 1.633-2.727l.085-1.946h2.003V10h.838V4.545h-3.636l-.1 2.415c-.07 1.833-.255 2.259-.909 2.259h-.198V10zm8.187.128c.952 0 1.449-.512 1.62-.867h.042V10h.838V6.406c0-1.733-1.32-1.932-2.017-1.932-.824 0-1.761.285-2.188 1.279l.796.284c.185-.398.621-.824 1.42-.824.771 0 1.151.408 1.151 1.108v.028c0 .405-.412.37-1.406.498-1.012.131-2.117.355-2.117 1.605 0 1.065.824 1.676 1.861 1.676zm.128-.753c-.668 0-1.15-.298-1.15-.88 0-.64.582-.839 1.235-.924.355-.043 1.307-.142 1.449-.312v.767c0 .681-.54 1.349-1.534 1.349zm4.94-4.83h-.838V10h.838V7.67h2.613V10h.838V4.545h-.838V6.89h-2.613V4.545zm7.398 5.569c1.477 0 2.471-1.123 2.471-2.813 0-1.704-.994-2.827-2.471-2.827s-2.472 1.123-2.472 2.827c0 1.69.995 2.813 2.472 2.813zm0-.753c-1.122 0-1.634-.966-1.634-2.06s.512-2.074 1.634-2.074c1.122 0 1.633.98 1.633 2.074 0 1.094-.51 2.06-1.633 2.06zm6.381 2.201h.838V10h4.034v1.563h.838V9.219h-.838V4.545H47.97l-.184 2.16c-.132 1.527-.327 2.052-.767 2.514h-.455v2.344zM47.97 9.22c.384-.505.522-1.375.64-2.514l.142-1.378h1.846V9.22H47.97zm5.134.781h.284c1.207 0 1.555-.938 1.633-2.727l.085-1.946h2.003V10h.838V4.545h-3.636l-.1 2.415c-.07 1.833-.255 2.259-.908 2.259h-.2V10zm9.862 0h.796V4.545h-2.245c-1.175 0-1.889.615-1.889 1.62 0 .75.377 1.282 1.034 1.505L59.33 10h.909l1.264-2.216h1.463V10zm0-2.997h-1.548c-.593 0-.952-.316-.952-.838 0-.53.398-.853 1.051-.853h1.45v1.69zM68.513 10h.838V5.327h2.614V10h.837V4.545h-4.29V10zm6.02 2.046h.838V9.162h.071c.185.298.54.952 1.591.952 1.364 0 2.315-1.094 2.315-2.827 0-1.719-.951-2.813-2.33-2.813-1.064 0-1.391.654-1.576.938h-.1v-.867h-.809v7.5zm.824-4.773c0-1.222.54-2.046 1.562-2.046 1.066 0 1.591.895 1.591 2.046 0 1.165-.54 2.088-1.59 2.088-1.01 0-1.563-.852-1.563-2.088zm7.686 2.84c1.477 0 2.471-1.122 2.471-2.812 0-1.704-.994-2.827-2.471-2.827-1.478 0-2.472 1.123-2.472 2.827 0 1.69.995 2.813 2.472 2.813zm0-.752c-1.122 0-1.634-.966-1.634-2.06s.512-2.074 1.634-2.074c1.122 0 1.633.98 1.633 2.074 0 1.094-.511 2.06-1.633 2.06zm3.368 2.201h.838V10h4.034v1.563h.838V9.219h-.838V4.545h-3.466l-.184 2.16c-.132 1.527-.327 2.052-.767 2.514h-.455v2.344zm1.406-2.343c.384-.505.523-1.375.64-2.514l.142-1.378h1.846v3.892h-2.627zm5.617.781h2.57c1.109 0 1.776-.625 1.776-1.463 0-.856-.65-1.318-1.25-1.406.615-.128 1.052-.473 1.052-1.137 0-.87-.746-1.449-1.918-1.449h-2.23V10zm.795-.767V7.557h1.776c.575 0 .923.344.923.909 0 .476-.348.767-.923.767h-1.776zm0-2.4v-1.52h1.435c.671 0 1.08.28 1.08.738 0 .487-.409.781-1.08.781h-1.435zm5.858 1.931V4.545h-.838V10h.98l2.614-4.219V10h.838V4.545h-.966l-2.628 4.22zM105.075 10h1.008l1.861-2.344h.426V10h.838V7.656h.427L111.481 10h1.009l-2.202-2.77 2.173-2.685h-.994l-1.818 2.33h-.441v-2.33h-.838v2.33h-.454l-1.818-2.33h-.995l2.188 2.685-2.216 2.77zm10.875.114c1.108 0 1.917-.554 2.173-1.378l-.81-.227c-.213.568-.706.852-1.363.852-.984 0-1.662-.636-1.701-1.804h3.959v-.355c0-2.032-1.207-2.728-2.344-2.728-1.477 0-2.457 1.165-2.457 2.841 0 1.676.966 2.799 2.543 2.799zm-1.701-3.282c.057-.848.657-1.605 1.615-1.605.91 0 1.492.682 1.492 1.605h-3.107zm6.272-2.287h-.838V10h.838V7.67h2.614V10h.838V4.545h-.838V6.89h-2.614V4.545zm6.02 4.22v-4.22h-.838V10h.98l2.614-4.219V10h.838V4.545h-.966l-2.628 4.22zm8.61 1.235h.796V4.545h-2.244c-1.176 0-1.89.615-1.89 1.62 0 .75.377 1.282 1.034 1.505L131.515 10h.909l1.264-2.216h1.463V10zm0-2.997h-1.548c-.593 0-.952-.316-.952-.838 0-.53.398-.853 1.052-.853h1.448v1.69z" fill="#9FB4FF"/><path d="M5.36 30c3.768 0 5.947-2.336 5.947-6.2 0-3.846-2.18-6.164-5.82-6.164H1.359V30h4.003zm-2.136-1.63v-9.104h2.149c2.704 0 4.099 1.618 4.099 4.534 0 2.928-1.395 4.57-4.214 4.57H3.224zM16.13 30l1.135-3.272h4.83L23.224 30h1.98l-4.45-12.364H18.6L14.15 30h1.98zm1.678-4.842l1.824-5.276h.096l1.823 5.276H17.81zm21.2-7.522h-1.847v9.08h-.115l-6.29-9.08h-1.727V30h1.866v-9.067h.114L37.294 30h1.714V17.636zm15.03 4.021c-.422-2.644-2.493-4.19-5.107-4.19-3.2 0-5.56 2.397-5.56 6.351s2.348 6.351 5.56 6.351c2.717 0 4.703-1.702 5.107-4.147l-1.883-.006c-.32 1.581-1.648 2.45-3.212 2.45-2.119 0-3.719-1.623-3.719-4.648 0-3 1.594-4.648 3.725-4.648 1.576 0 2.898.887 3.206 2.487h1.883zM58.31 30h7.824v-1.606h-5.958V24.61h5.481v-1.6h-5.481v-3.767h5.886v-1.606H58.31V30zm22.552-8.343c-.422-2.644-2.493-4.19-5.107-4.19-3.2 0-5.56 2.397-5.56 6.351s2.348 6.351 5.56 6.351c2.717 0 4.703-1.702 5.107-4.147l-1.883-.006c-.32 1.581-1.648 2.45-3.212 2.45-2.119 0-3.719-1.623-3.719-4.648 0-3 1.594-4.648 3.725-4.648 1.576 0 2.898.887 3.206 2.487h1.883zm15.012 2.161c0-3.954-2.366-6.35-5.566-6.35-3.212 0-5.572 2.396-5.572 6.35 0 3.948 2.36 6.351 5.572 6.351 3.2 0 5.566-2.397 5.566-6.35zm-1.847 0c0 3.013-1.594 4.649-3.719 4.649-2.13 0-3.719-1.636-3.719-4.649 0-3.012 1.588-4.648 3.72-4.648 2.124 0 3.718 1.636 3.718 4.648zM100.24 30h7.468v-1.606h-5.603V17.636h-1.865V30zm21.894-6.182c0-3.954-2.367-6.35-5.566-6.35-3.212 0-5.572 2.396-5.572 6.35 0 3.948 2.36 6.351 5.572 6.351 3.199 0 5.566-2.397 5.566-6.35zm-1.847 0c0 3.013-1.594 4.649-3.719 4.649-2.131 0-3.719-1.636-3.719-4.649 0-3.012 1.588-4.648 3.719-4.648 2.125 0 3.719 1.636 3.719 4.648zM126.5 30h1.865v-4.679h2.656L133.533 30h2.125l-2.741-5.005c1.515-.561 2.27-1.823 2.27-3.483 0-2.276-1.413-3.876-4.28-3.876H126.5V30zm1.865-6.284v-4.48h2.342c1.842 0 2.602.875 2.602 2.276 0 1.395-.76 2.204-2.578 2.204h-2.366z" fill="#fff"/></svg>