<svg width="66" height="58" fill="none" xmlns="http://www.w3.org/2000/svg"><path fill-rule="evenodd" clip-rule="evenodd" d="M44.88 4.638a1.92 1.92 0 012.725.29l17.183 21.617c.67.842.535 2.078-.3 2.761L30.61 56.99a1.57 1.57 0 01-2.229-.237l1.513-1.236a.35.35 0 00-.496-.052L63.275 27.78 46.093 6.163l-3.845 3.142-1.212-1.525 3.845-3.142z" fill="#6B83DA"/><path fill-rule="evenodd" clip-rule="evenodd" d="M28.227 1.652a1.922 1.922 0 012.676-.598l23.14 14.812a1.98 1.98 0 01.62 2.706L31.55 55.697a1.795 1.795 0 01-2.5.558l1.029-1.652a.127.127 0 00-.177.04l23.113-37.125-23.14-14.812-2.806 4.507-1.648-1.055 2.806-4.506z" fill="#6B83DA"/><path fill-rule="evenodd" clip-rule="evenodd" d="M13.359 4.299a1.934 1.934 0 012.412-1.32l26.29 7.662a1.968 1.968 0 011.354 2.415L31.343 55.65a1.38 1.38 0 01-1.795.916l.635-1.833a.555.555 0 00-.722.368l12.072-42.593-26.291-7.66-1.836 6.475-1.883-.549L13.36 4.3z" fill="#6B83DA"/><path fill-rule="evenodd" clip-rule="evenodd" d="M0 11.468c0-1.071.879-1.94 1.963-1.94h27.351c1.084 0 1.963.869 1.963 1.94v43.788c0 1.07-.879 1.94-1.963 1.94H1.963A1.951 1.951 0 010 55.255V11.468zm29.314 0H1.963v43.788h27.351V11.468z" fill="#6B83DA"/><path fill-rule="evenodd" clip-rule="evenodd" d="M22.505 46.923a1.951 1.951 0 00-1.963 1.94 1.95 1.95 0 001.962 1.939 1.951 1.951 0 001.963-1.94 1.95 1.95 0 00-1.962-1.939zm-3.926 1.94c0-2.142 1.757-3.879 3.925-3.879 2.169 0 3.926 1.737 3.926 3.879s-1.757 3.878-3.925 3.878c-2.169 0-3.926-1.736-3.926-3.878z" fill="#6B83DA"/></svg>