<svg width="66" height="66" fill="none" xmlns="http://www.w3.org/2000/svg"><path d="M51.792 17.678H14.209a.968.968 0 100 1.935h37.583a.967.967 0 100-1.935zm0 10.535H14.209a.967.967 0 100 1.936h37.583a.967.967 0 100-1.936zM39.47 35.05H26.53a.968.968 0 100 1.936h12.94a.968.968 0 100-1.935zm12.322-12.126H23.758a.968.968 0 100 1.936h28.034a.967.967 0 100-1.936zm-32.536 0H14.21a.967.967 0 100 1.936h5.047a.968.968 0 000-1.936z" fill="#6B83DA"/><path d="M61.005 16.043a1.19 1.19 0 00-.84-.343h-.001a3.65 3.65 0 01-3.655-3.49 1.189 1.189 0 00-1.19-1.135H10.45c-.639 0-1.162.498-1.19 1.135a3.68 3.68 0 01-3.487 3.486 1.189 1.189 0 00-1.135 1.191v25.01c0 .64.498 1.163 1.135 1.192a3.68 3.68 0 013.486 3.487 1.189 1.189 0 001.191 1.135h28.563a.968.968 0 100-1.936H11.117a5.552 5.552 0 00-4.543-4.543v-23.68a5.552 5.552 0 004.543-4.542h43.536a5.58 5.58 0 004.773 4.577V34.02a.968.968 0 001.935 0V16.893c0-.322-.126-.624-.356-.85z" fill="#6B83DA"/><path d="M63.314 6.245H2.686A2.689 2.689 0 000 8.93v40.924a2.689 2.689 0 002.686 2.685h40.611l-1.437 3.013a1.147 1.147 0 001.22 1.63l2.676-.43 1.493 2.45a1.148 1.148 0 002.019-.102l2.594-5.437 2.594 5.436a1.149 1.149 0 002.02.104l1.492-2.451 2.677.43a1.147 1.147 0 001.22-1.629l-1.438-3.013h2.887A2.689 2.689 0 0066 49.855V8.93a2.689 2.689 0 00-2.686-2.686zM48.147 56.957l-1.013-1.662c-.244-.4-.7-.611-1.164-.537l-1.719.277 1.81-3.794a3.448 3.448 0 002.786 1.022 1.51 1.51 0 011.019.273c.097.069.198.13.3.188l-2.02 4.233zm3.946-5.737l-.01.001a1.515 1.515 0 01-.442 0l-.01-.001a1.508 1.508 0 01-.645-.261 3.447 3.447 0 00-2.321-.623 1.51 1.51 0 01-1.517-.875c-.118-.26-.27-.5-.446-.719l-.024-.032-.029-.036a3.443 3.443 0 00-1.2-.913 1.512 1.512 0 01-.876-1.516 3.447 3.447 0 00-.622-2.322 1.512 1.512 0 010-1.75c.48-.675.7-1.499.622-2.322-.06-.64.292-1.25.876-1.517a3.447 3.447 0 001.7-1.7 1.513 1.513 0 011.516-.875 3.447 3.447 0 002.322-.622 1.512 1.512 0 011.75 0c.675.48 1.498.7 2.322.622.64-.06 1.25.291 1.517.876a3.446 3.446 0 001.7 1.7c.584.267.936.876.875 1.516a3.446 3.446 0 00.622 2.321 1.512 1.512 0 010 1.751 3.449 3.449 0 00-.622 2.322c.06.64-.291 1.249-.876 1.517a3.447 3.447 0 00-1.201.914l-.025.03c-.01.013-.02.025-.028.038a3.427 3.427 0 00-.445.717 1.512 1.512 0 01-1.517.876 3.452 3.452 0 00-2.321.621c-.196.14-.417.227-.645.262zm5.661 3.538a1.145 1.145 0 00-1.163.537l-1.013 1.662-2.02-4.233a3.26 3.26 0 00.3-.188 1.51 1.51 0 011.019-.273 3.447 3.447 0 002.786-1.022l1.81 3.794-1.719-.277zm6.311-4.903a.75.75 0 01-.75.75h-3.812l-.498-1.045c.025-.013.05-.027.076-.039a3.45 3.45 0 001.996-3.459c-.034-.36.063-.722.273-1.018a3.449 3.449 0 000-3.993 1.511 1.511 0 01-.273-1.018 3.45 3.45 0 00-1.996-3.459 1.512 1.512 0 01-.746-.745 3.45 3.45 0 00-3.458-1.996 1.51 1.51 0 01-1.018-.273 3.449 3.449 0 00-3.994 0 1.51 1.51 0 01-1.018.272 3.449 3.449 0 00-3.458 1.997c-.151.33-.416.594-.745.745a3.45 3.45 0 00-1.997 3.459c.034.36-.063.722-.273 1.018a3.449 3.449 0 000 3.993c.21.296.307.657.273 1.018a3.45 3.45 0 001.997 3.459c.026.012.05.026.076.039l-.5 1.045H2.687a.752.752 0 01-.751-.75V8.93c0-.414.337-.751.75-.751h60.63c.413 0 .75.337.75.75v40.925z" fill="#6B83DA"/><path d="M51.792 37.036a6.018 6.018 0 00-6.012 6.012 6.018 6.018 0 006.012 6.011 6.018 6.018 0 006.01-6.011 6.018 6.018 0 00-6.01-6.012zm0 10.088a4.081 4.081 0 01-4.077-4.077 4.081 4.081 0 014.077-4.076 4.08 4.08 0 014.076 4.077 4.081 4.081 0 01-4.076 4.076z" fill="#6B83DA"/></svg>